<?xml version="1.0" encoding="utf-8"?>
<!-- Generator: Adobe Illustrator 13.0.0, SVG Export Plug-In . SVG Version: 6.00 Build 14948)  -->
<!DOCTYPE svg PUBLIC "-//W3C//DTD SVG 1.1//EN" "http://www.w3.org/Graphics/SVG/1.1/DTD/svg11.dtd">
<svg version="1.1" id="Layer_1" xmlns="http://www.w3.org/2000/svg" xmlns:xlink="http://www.w3.org/1999/xlink" x="0px" y="0px"
	 width="426.94px" height="98.59px" viewBox="0 0 426.94 98.59" enable-background="new 0 0 426.94 98.59" xml:space="preserve">
<path fill="#FF0000" d="M317.991,74.976l1.053-1.918l1.945,1.001L317.991,74.976z M294.625,77.377l0.922,1.484l3.681,0.168
	l48.426-3.386l-0.062-0.911l3.734-0.639l-1.244-4.192l-0.406,0.979c-0.675-0.586-1.024-1.037-1.047-1.353
	c-0.025-0.379,0.045-0.731,0.211-1.061c0.059-0.137,0.19-0.339,0.381-0.591l-57.402,4.014c-0.14,0.124-0.274,0.265-0.401,0.425
	c-0.506,0.643-0.943,1.754-1.313,3.319C291.103,76.772,292.61,77.354,294.625,77.377 M232.756,83.677l22.313-1.56
	c0.173-0.135,0.329-0.264,0.528-0.406c1.386-0.989,1.916-2.136,1.591-3.44c0.419-0.104,0.763-0.412,1.031-0.924
	c0.093-0.222,0.245-0.408,0.455-0.559c0.349,0.21,0.628,0.337,0.837,0.385c0.595,0.197,1.101,0.245,1.52,0.14
	c-0.466,0.512-0.746,0.977-0.839,1.397c-0.093,0.418-0.077,0.884,0.051,1.397c0.292,0.174,0.815,0.242,1.572,0.202
	c0.757-0.041,1.252,0.009,1.484,0.149l0.001-1.484c1.133,0.493,2.172,1.135,3.129,1.906l0.107,0.435l25.505-1.784
	c-2.318-1.813-5.233-4.091-3.511-3.382l0.927-0.649c-0.101-0.57-0.08-1.401,0.072-2.517c0.049-0.356,0.089-0.663,0.125-0.943
	l-25.037,1.751c-0.169,0.436-0.372,0.69-0.609,0.749c-0.28,0.07-1.205-0.071-2.777-0.421c-0.128-0.029-0.252-0.041-0.379-0.065
	l-4.455,0.312c-0.239,0.197-0.508,0.488-0.815,0.902c-0.519,0.697-0.737,1.21-0.655,1.536c-0.749,0.187-1.439,0.47-2.103,0.8
	l-0.731-2.937l-18.352,1.283c0.09,0.332,0.193,0.707,0.324,1.17c0.306,1.084,0.442,1.904,0.422,2.482l1.008,0.514
	C237.033,79.215,234.748,81.613,232.756,83.677 M203.064,82.563l1.787-1.262l1.31,1.752L203.064,82.563z M173.677,82.494
	l-0.649,4.325l3.788,0.113l0.046,0.653l50.643-3.542l1.423-0.266l0.707-1.598c1.991-0.304,3.402-1.089,4.235-2.357
	c-0.585-1.497-1.173-2.537-1.764-3.103c-0.282-0.27-0.58-0.462-0.891-0.593l-57.227,4.001c0.348,0.329,0.618,0.607,0.717,0.773
	c0.212,0.303,0.33,0.642,0.357,1.021c0.022,0.316-0.261,0.812-0.847,1.486L173.677,82.494z M150.431,85.316l0.024-0.016
	c0.345-0.327,0.644-0.542,0.887-0.621l-0.887,0.621c-0.005,0.004-0.011,0.011-0.016,0.016H150.431z M96.171,87.914l-0.649,4.325
	l3.788,0.113l0.046,0.653l69.226-4.841l-0.074-1.056c0.819-0.256,1.671-0.479,2.594-0.631c-0.057-0.819-0.341-1.481-0.852-1.985
	c-0.51-0.502-0.788-1.069-0.832-1.701c0.85-0.059,1.643-0.925,2.387-2.511l-21.746,1.521l0.206,2.952l-0.359,0.025
	c-0.671,0.047-1.096-0.188-1.276-0.704c-0.165-0.471-0.284-1.195-0.362-2.148l-18.595,1.3l0.051,0.731
	c-0.326,0.012-0.636,0.019-0.999,0.044l0.126,1.796c-0.224,0.257-0.694,0.409-1.412,0.459c-0.003-0.047-0.085-0.185-0.245-0.415
	c-0.107-0.137-0.169-0.349-0.189-0.637l-3.157,1.304l-0.46-1.412l-0.262,0.379l-1.224-0.997c0.023,0.336-0.032,0.58-0.166,0.734
	c-0.093,0.055-0.252,0.187-0.477,0.394l-1.537-1.336c-0.805,0.056-1.594,0.145-2.37,0.256l-0.031-0.436l-20.838,1.457
	c0.348,0.328,0.618,0.606,0.717,0.773c0.212,0.303,0.331,0.642,0.357,1.021c0.022,0.315-0.261,0.811-0.847,1.484L96.171,87.914z
	 M3.049,76.909l1.703,1.479l1.933-0.934c-0.266,0.018-0.557-0.334-0.874-1.058c-0.573-1.346-1.417-1.98-2.531-1.902
	c0.03,0.425,0.035,0.891,0.018,1.398C3.28,76.4,3.197,76.738,3.049,76.909 M2.846,79.721c-0.169-0.147-0.265-0.264-0.385-0.39
	l0.275,3.931c0,0,0.359,4.792,3.259,9.018c2.171,0.757,3.939,2.383,4.906,4.479c2.382,1.292,5.439,2.052,9.402,1.774l10.456-0.73
	c0.826-0.84,1.134-1.773,0.875-2.812c0.42-0.104,0.764-0.413,1.031-0.925c0.093-0.221,0.245-0.408,0.455-0.558
	c0.349,0.209,0.629,0.337,0.838,0.384c0.594,0.198,1.1,0.245,1.519,0.141c-0.466,0.512-0.746,0.978-0.839,1.396
	c-0.093,0.419-0.077,0.884,0.051,1.396c0.292,0.175,0.815,0.242,1.572,0.202c0.757-0.04,1.252,0.009,1.484,0.15l0.001-1.485
	c0.887,0.386,1.701,0.888,2.478,1.447l11.651-0.815c2.501-0.948,5.453-1.607,8.653-1.832c3.201-0.224,6.216,0.02,8.824,0.61
	l21.724-1.52l-0.073-1.056c0.819-0.255,1.67-0.478,2.593-0.63c-0.057-0.819-0.341-1.481-0.852-1.985
	c-0.51-0.502-0.788-1.069-0.832-1.7c0.85-0.061,1.644-0.926,2.387-2.512l-13.326,0.933l0.001,0.01
	c-0.412,0.115-1.108,0.209-2.107,0.279c-0.862,0.06-1.565,0.169-2.107,0.326c-0.542,0.158-0.988,0.49-1.337,0.996l1.795-0.125
	l0.076,1.077l-3.233,0.227c-0.02-0.287-0.107-0.667-0.259-1.138c-0.154-0.47-0.237-0.802-0.25-0.993l-2.27,0.018l-30.26,2.116
	l0.133,0.536c-0.632-0.06-1.269-0.074-1.915-0.013c-0.198,0.792-0.46,1.229-0.786,1.31c-0.28,0.069-1.205-0.07-2.776-0.42
	c-1.572-0.352-3.032-0.358-4.384-0.021c-0.325,0.081-0.747,0.471-1.266,1.169s-0.738,1.21-0.656,1.537
	c-0.749,0.186-1.439,0.47-2.101,0.799l-0.965-3.868l-2.326,0.163c-9.056,0.633-12.106-5.614-13.119-9.278l-1.904,0.133
	c-0.011-0.192-0.018-0.365-0.033-0.578c-0.022-0.319-0.059-0.848-0.111-1.592c-0.205,0.122-0.584,0.229-1.137,0.32
	c-0.553,0.092-0.819,0.297-0.797,0.615l-2.127-1.85c-0.213,0.015-0.468,0.167-0.768,0.454C3.437,79.414,3.057,79.707,2.846,79.721
	 M6.54,41.338l-3.096-0.491l1.787-1.261L6.54,41.338z M24.157,26.768l-8.829,0.617c0,0-5,0.365-9.29,3.44
	c-0.787,1.798-2.146,3.301-3.905,4.197c-1.475,2.452-2.374,5.668-2.076,9.931l0.686,9.812c0.727,0.704,1.218,1.657,1.294,2.745
	c0.076,1.089-0.278,2.101-0.899,2.899l0.641,9.174l1.13-0.079c-0.084,0.639-0.161,1.358-0.221,2.235
	c1.006-0.071,2.09,0.56,3.25,1.891c1.158,1.331,2.033,2.03,2.624,2.095c0.241-1.882,0.361-3.409,0.359-4.582
	C8.92,70.59,8.9,69.897,8.863,69.087l0.82-0.057L8.466,51.627c-0.643-0.576-2.255-2.023-2.152-2.001
	c-0.477-0.985-0.729-1.762-0.755-2.332c-0.027-0.569,0.08-1.418,0.32-2.545c0.517,0.11,0.876,0.727,1.079,1.849
	c0.078,0.557,0.248,0.912,0.51,1.065c0.37-1.283,0.761-2.722,1.171-4.31l0.065-0.005c2.233-7.967,11.366-8.637,11.366-8.637
	l4.012-0.28c-0.103-0.409-0.266-1.014-0.506-1.864c-0.306-1.084-0.442-1.904-0.422-2.482l-1.008-0.514
	C20.795,30.362,22.397,28.605,24.157,26.768 M54.578,27.125l-1.787,1.262l-1.31-1.752L54.578,27.125z M83.965,27.193l0.649-4.325
	l-3.291-0.098l-52.854,3.696l-0.461,1.041c-1.992,0.303-3.403,1.089-4.236,2.357c0.585,1.497,1.173,2.537,1.764,3.103
	c0.607,0.581,1.283,0.84,2.028,0.778c0.018,0.153,0.014,0.3-0.009,0.443l53.807-3.763l-0.033-0.473c0.9,0.103,1.833,0.15,2.835,0.08
	c-0.674-0.588-1.084-1.003-1.228-1.246c-0.212-0.303-0.331-0.642-0.357-1.021c-0.022-0.316,0.261-0.812,0.847-1.486L83.965,27.193z
	 M107.211,24.372l-0.024,0.016c-0.345,0.327-0.644,0.542-0.888,0.621l0.888-0.621c0.005-0.004,0.011-0.011,0.016-0.016H107.211z
	 M160.218,17.392l-1.389-0.041l-69.72,4.875l0.025,0.353c-0.819,0.256-1.671,0.479-2.594,0.631c0.057,0.819,0.341,1.481,0.852,1.985
	c0.51,0.502,0.788,1.069,0.832,1.701c-0.946,0.066-1.827,1.079-2.641,3.037c1.407-0.098,2.747-0.268,4.03-0.503l0.029,0.417
	l16.136-1.128l-0.028-0.4c0.651-0.059,1.277-0.113,1.853-0.153l-0.226-3.232l0.359-0.025c0.671-0.047,1.096,0.188,1.276,0.704
	c0.181,0.518,0.309,1.326,0.386,2.427l3.465-0.436l0.043,0.616l15.112-1.056l-0.1-1.434c0.325-0.012,0.635-0.019,0.999-0.044
	l-0.126-1.796c0.224-0.257,0.694-0.409,1.412-0.46c0.003,0.048,0.085,0.186,0.245,0.416c0.107,0.137,0.169,0.349,0.189,0.637
	l3.157-1.304l0.46,1.412l0.262-0.38l1.224,0.997c-0.023-0.335,0.032-0.579,0.166-0.733c0.093-0.055,0.251-0.187,0.477-0.394
	l1.537,1.336c0.805-0.056,1.593-0.145,2.37-0.256l0.08,1.139l18.498-1.294l-0.033-0.473c0.45,0.052,0.908,0.089,1.379,0.105
	c-0.103-0.395-0.237-0.893-0.435-1.594c-0.306-1.085-0.442-1.905-0.422-2.482l-1.008-0.514
	C157.035,20.817,158.517,19.173,160.218,17.392 M161.471,21.773l0.464-3.092c-0.828,0.408-1.495,0.95-1.96,1.659
	c0.161,0.413,0.323,0.783,0.485,1.126c0.128-0.184,0.277-0.382,0.472-0.606L161.471,21.773z M190.781,17.601l-1.787,1.262
	l-1.31-1.752L190.781,17.601z M220.167,17.668l0.649-4.324l-0.921-0.028v0.678c-0.48-0.209-0.935-0.458-1.381-0.719l-0.989-0.03
	l-14.652,1.025c-1.788,0.456-3.721,0.782-5.761,0.924c-2.039,0.143-3.998,0.09-5.832-0.113l-24.666,1.724l0.024,0.354
	c-0.734,0.229-1.502,0.424-2.317,0.573l-0.111,0.251c-0.041,0.006-0.074,0.019-0.115,0.026c0.092,0.71,0.341,1.311,0.802,1.765
	c0.51,0.502,0.788,1.07,0.832,1.701c-0.891,0.062-1.72,0.994-2.493,2.732c0.172,0.023,0.349,0.028,0.529,0.013
	c0.01,0.079-0.002,0.152-0.004,0.227c1.159-0.102,2.283-0.241,3.356-0.437l0.03,0.416l9.57-0.669l-0.05-0.713
	c0.412-0.115,1.108-0.209,2.107-0.279c0.862-0.06,1.565-0.169,2.106-0.328c0.543-0.157,0.989-0.489,1.338-0.995l-1.795,0.125
	l-0.076-1.077l3.232-0.226c0.021,0.287,0.108,0.667,0.26,1.137c0.154,0.47,0.237,0.802,0.25,0.993l3.719-0.028l0.043,0.613
	l28.94-2.024l-0.307-1.23c0.633,0.059,1.271,0.074,1.915,0.012c0.128-0.511,0.285-0.857,0.467-1.072
	c-0.039-0.137-0.076-0.275-0.086-0.424c-0.021-0.317,0.261-0.812,0.847-1.486L220.167,17.668z M223.003,14.257
	c0.046-0.201,0.062-0.415,0.056-0.638c-0.107,0.02-0.207,0.047-0.316,0.065c0.02,0.285,0.104,0.526,0.177,0.772
	C222.943,14.392,222.99,14.32,223.003,14.257 M243.414,14.847l-0.023,0.016c-0.346,0.326-0.646,0.542-0.889,0.621l0.889-0.621
	c0.005-0.004,0.011-0.011,0.015-0.016H243.414z M297.674,12.25l0.648-4.325l-3.291-0.098l-68.717,4.805
	c-0.369,0.639-0.492,1.324-0.307,2.065c-0.421,0.104-0.765,0.413-1.031,0.925c-0.094,0.221-0.245,0.408-0.455,0.558
	c-0.347-0.208-0.626-0.335-0.834-0.383c0.436,0.472,0.698,0.993,0.739,1.575c-0.667,0.046-1.299,0.589-1.899,1.574
	c1.356,0.234,2.632,0.22,3.819-0.076c0.325-0.081,0.748-0.471,1.267-1.17c0.52-0.697,0.737-1.209,0.656-1.536
	c0.749-0.187,1.438-0.47,2.101-0.799l1.006,4.033l-3,0.748l13.604-0.951l-0.028-0.4c0.65-0.059,1.277-0.113,1.854-0.153
	l-0.227-3.232l0.359-0.025c0.671-0.047,1.096,0.188,1.276,0.704c0.181,0.518,0.309,1.326,0.386,2.427l3.465-0.436l0.043,0.616
	l15.112-1.057l-0.101-1.433c0.325-0.012,0.636-0.019,0.999-0.045l-0.126-1.795c0.225-0.257,0.693-0.41,1.412-0.46
	c0.003,0.047,0.085,0.186,0.245,0.416c0.107,0.137,0.169,0.349,0.189,0.636l3.156-1.303l0.459,1.411l0.264-0.379l1.224,0.997
	c-0.023-0.335,0.032-0.579,0.165-0.733c0.094-0.055,0.252-0.187,0.478-0.394l1.537,1.336c0.806-0.057,1.594-0.146,2.37-0.257
	l0.08,1.14l18.498-1.294l-0.033-0.473c0.899,0.103,1.832,0.15,2.835,0.08c-0.675-0.588-1.084-1.003-1.229-1.246
	c-0.211-0.303-0.33-0.642-0.356-1.021c-0.022-0.316,0.262-0.812,0.848-1.486L297.674,12.25z M392.43,3.459l-1.749,1.269
	c0.265,0.215,0.754,0.283,1.47,0.208l-1.246,1.579l-1.622-2.002c0.491-0.388,0.923-0.64,1.297-0.751
	C390.955,3.65,391.571,3.549,392.43,3.459 M408.189,0.007c-0.51,0.001-0.996-0.024-1.538,0.013l-44.134,3.087
	c-0.368,0.639-0.491,1.324-0.308,2.065c-0.419,0.104-0.763,0.413-1.03,0.925c-0.094,0.221-0.245,0.407-0.454,0.558
	c-0.35-0.21-0.629-0.337-0.838-0.385c-0.595-0.197-1.101-0.245-1.52-0.14c0.466-0.512,0.745-0.977,0.839-1.397
	c0.093-0.417,0.076-0.881-0.051-1.391l-3.057,0.213v0.914c-0.538-0.234-1.052-0.506-1.548-0.805l-15.475,1.082
	c-1.789,0.456-3.722,0.781-5.761,0.924s-3.998,0.09-5.833-0.114l-24.665,1.725l0.024,0.353c-0.819,0.256-1.67,0.479-2.595,0.631
	c0.059,0.819,0.343,1.481,0.853,1.985c0.511,0.502,0.788,1.069,0.833,1.701c-0.947,0.066-1.827,1.079-2.642,3.037
	c1.406-0.098,2.747-0.268,4.029-0.503l0.029,0.417l9.57-0.669l-0.05-0.713c0.412-0.115,1.108-0.209,2.107-0.279
	c0.862-0.06,1.564-0.169,2.105-0.328c0.543-0.157,0.989-0.49,1.339-0.996l-1.797,0.126l-0.074-1.077l3.231-0.226
	c0.021,0.287,0.108,0.667,0.26,1.136c0.154,0.471,0.237,0.802,0.25,0.993l3.72-0.027l0.043,0.612l28.94-2.023l-0.307-1.231
	c0.633,0.059,1.27,0.075,1.915,0.013c0.198-0.792,0.46-1.228,0.787-1.31c0.278-0.069,1.205,0.071,2.775,0.421
	c1.572,0.35,3.032,0.357,4.384,0.02c0.325-0.081,0.747-0.47,1.267-1.169c0.518-0.697,0.737-1.21,0.656-1.536
	c0.749-0.187,1.438-0.47,2.101-0.8l1.006,4.034l-3,0.748l38.395-2.685c0.728-0.051,1.407-0.046,2.06-0.013l0.033-0.084
	c0.047,0.029,0.1,0.054,0.148,0.083c0.869,0.054,1.653,0.199,2.397,0.384c-0.153-0.406-0.247-0.717-0.266-0.909
	c-0.075-0.426-0.033-0.845,0.126-1.259c0.133-0.347,0.679-0.732,1.633-1.157l0.121,1.236l2.826-4.266L408.189,0.007z
	 M422.917,30.839l-1.749,1.27c0.266,0.214,0.754,0.283,1.471,0.208l-1.246,1.578l-1.622-2.001c0.491-0.389,0.923-0.64,1.297-0.752
	C421.443,31.03,422.059,30.93,422.917,30.839 M426.08,41.92l-1.861-26.629c0,0-0.113-1.499-0.706-3.547
	c-1.275-0.92-2.156-2.334-2.272-3.994c-0.022-0.34-0.004-0.674,0.035-1.002c-0.943-1.48-2.194-2.906-3.824-4.073l-0.463,1.204
	c-0.995-0.134-2.008-0.318-3.062-0.614c-0.345,0.897-0.37,1.74-0.078,2.526c0.293,0.785,0.307,1.524,0.041,2.215
	c-0.893-0.342-2.099,0.132-3.581,1.327c0.813,0.447,1.512,0.981,2.13,1.56c0.56,0.172,1.12,0.344,1.671,0.488l-0.362,0.941
	c2.554,3.377,2.842,7.449,2.842,7.449l0.061,0.867l2.937-1.425l0.163,1.409l-3.043,0.83l1.399,20.01l0.212-0.069
	c-0.073,0.429-0.096,0.793-0.009,1.019c0.114,0.007,0.928-0.202,2.438-0.629c1.085-0.306,1.905-0.442,2.482-0.421l0.514-1.009
	C423.02,39.118,424.429,40.355,426.08,41.92 M410.897,67.721c-0.523,0.454-1.363,0.871-2.522,1.247
	c-1.159,0.38-2.189,0.444-3.091,0.198c0.26-0.226,0.989-0.573,2.187-1.042c1.195-0.466,2.054-0.927,2.577-1.381L410.897,67.721z
	 M373.493,69.46h-0.008c-0.006-0.003-0.012-0.01-0.018-0.013l-0.966-0.492c0.251,0.045,0.578,0.217,0.966,0.492L373.493,69.46z
	 M426.897,53.603l-0.498-7.125l-0.591-0.261c-0.305-1.992-1.09-3.404-2.357-4.237c-1.498,0.585-2.538,1.173-3.103,1.764
	c-0.581,0.607-0.84,1.283-0.778,2.028c-0.438,0.054-0.835-0.066-1.188-0.357l0.337,4.814c0.89,12.725-11.835,13.615-11.835,13.615
	l-0.756,0.052l0.013,0.18c-0.784-0.002-1.577,0.02-2.382,0.076l-1.336,1.537c-0.254-0.174-0.429-0.283-0.528-0.324
	c-0.154-0.134-0.242-0.368-0.267-0.703l-1.073,1.157l-0.312-0.339l-0.259,1.462l-3.307-0.851c0.02,0.287-0.013,0.506-0.1,0.656
	c-0.126,0.25-0.188,0.399-0.185,0.446c-0.718,0.05-1.205-0.035-1.462-0.259l-0.125-1.795c-0.364,0.025-0.671,0.062-0.996,0.095
	l-0.033-0.474l-18.599,1.301c0.036,0.828,0.015,1.475-0.073,1.92c-0.107,0.536-0.495,0.828-1.166,0.875l-0.359,0.025l-0.188-2.695
	l-21.6,1.51c0.896,1.3,1.747,1.964,2.549,1.908c0.044,0.631-0.152,1.232-0.589,1.8c-0.435,0.57-0.625,1.265-0.566,2.084
	c0.935,0.022,1.809,0.124,2.655,0.264l0.093,1.313l55.692-3.895c0,0,2.569-0.188,5.603-1.433c1.053-2.253,3.455-4.023,6.457-4.647
	c0.65-0.799,1.224-1.713,1.715-2.729l-0.793,0.227c0.005-0.18-0.002-0.32-0.004-0.474c-0.004,0.001-0.007,0.001-0.011,0.002
	l-0.054-0.758c-0.008-0.04-0.01-0.102-0.019-0.137c-0.192-0.668-0.957-0.811-2.294-0.427c0.222-0.401,0.479-0.681,0.772-0.837
	c0.292-0.156,0.751-0.324,1.376-0.503l-0.194-3.2c0.025,0.09,0.188,0.235,0.487,0.439c0.3,0.203,0.488,0.439,0.564,0.706
	c0.501-0.143,1.055-0.237,1.59-0.349C426.929,55.976,426.984,54.854,426.897,53.603"/>
<path fill="#FF0000" d="M409.17,54.228c-2.141,0.391-5.276,0.731-9.406,1.02c-0.135,0.009-0.275-0.001-0.425-0.031
	c-0.148-0.03-0.291-0.04-0.424-0.031c-0.133,0.01-0.415-0.005-0.846-0.041c-0.431-0.037-0.74-0.049-0.926-0.036
	c-0.562,0.013-1.577,0.044-3.046,0.093c-1.257,0.034-1.951,0.056-2.084,0.065c-0.693,0.049-1.556,0.162-2.588,0.342
	c-0.005-0.08-0.269-0.216-0.791-0.407c-0.521-0.191-0.916-0.277-1.183-0.258c-0.453,0.031-0.897,0.183-1.334,0.454
	c-0.436,0.272-0.641,0.407-0.614,0.405c-0.16,0.011-0.285,0.033-0.377,0.066c-0.092,0.033-0.204,0.055-0.337,0.064l-5.114,0.358
	l-0.094-1.319c-0.021-0.32,0.086-0.689,0.325-1.107c0.329-0.264,0.623-0.459,0.882-0.584c0.146-0.225,0.206-0.51,0.182-0.856
	c-0.051-0.72-0.277-1.099-0.682-1.137c-0.404-0.039-0.634-0.445-0.688-1.217c-0.004-0.054,0.037-0.618,0.122-1.696
	c0.075-1.21,0.122-2.083,0.139-2.62c0-0.374-0.093-0.743-0.279-1.105c0.326-0.317,0.468-0.581,0.427-0.793l-1.345-7.175
	l-0.336-4.796c-0.042-0.613-0.013-1.137,0.091-1.573c0.044-0.137,0.234-0.384,0.571-0.743c0.336-0.358,0.501-0.59,0.493-0.697
	c-0.019-0.266-0.151-0.444-0.399-0.534c-0.055-0.023-0.437-0.13-1.146-0.322c-0.266-1.106-0.572-1.874-0.924-2.305l-0.044-0.639
	l0.193-0.094c0.02-0.108,0.024-0.316,0.017-0.624c-0.009-0.307,0.035-0.544,0.131-0.712c-0.065-0.156-0.154-0.283-0.268-0.383
	c-0.002-0.026,0.157-0.626,0.477-1.8c0.214-0.764,0.263-1.41,0.146-1.938c2.432-0.063,4.262-0.124,5.489-0.183
	c0.597,0.494,1.441,0.702,2.534,0.626c0.719-0.05,1.311-0.292,1.776-0.727c0.465-0.434,0.884-0.664,1.258-0.69
	c0.158-0.011,0.446-0.004,0.863,0.02c0.417,0.025,0.692,0.032,0.825,0.023l4.478-0.313c0.133-0.01,0.604,0.031,1.413,0.122
	c0.81,0.09,1.28,0.131,1.414,0.122c0.16-0.012,0.252-0.031,0.277-0.06l-0.003-0.04c-0.002-0.026,0.011-0.041,0.037-0.043
	c1.952-0.029,3.234-0.078,3.846-0.148c1.807-0.207,2.562-0.3,2.27-0.279c0.453-0.032,1.17-0.122,2.149-0.271l0.375,5.355
	c-0.818,0.165-1.466,0.291-1.941,0.377c-0.186,0.04-0.479,0.148-0.881,0.323c-0.403,0.176-0.685,0.269-0.845,0.28
	c-0.214,0.015-0.457-0.022-0.729-0.11c-1.604,0.059-3.096,0.163-4.478,0.313c-0.106,0.008-0.284,0.047-0.534,0.118
	c-0.25,0.071-0.453,0.112-0.613,0.123c-0.133,0.009-0.407,0.015-0.822,0.017c-0.415,0.003-0.696,0.009-0.842,0.019
	c-0.147,0.01-0.261,0.005-0.342-0.016c-0.082-0.021-0.203-0.026-0.363-0.015c-0.293,0.021-0.661,0.127-1.102,0.319
	c-0.522,0.199-0.777,0.378-0.767,0.538c0.07,0.237,0.162,0.406,0.277,0.505c0.048,1.073,0.061,1.839,0.04,2.297
	c-0.087,1.056-0.178,1.883-0.27,2.48c0.002,0.028-0.065,0.113-0.203,0.257c-0.137,0.144-0.203,0.257-0.196,0.337
	c0.009,0.133,0.184,0.249,0.525,0.346c0.343,0.097,0.677,0.188,1.003,0.273c-0.035,0.271-0.046,0.487-0.035,0.648
	c0.034,0.482,0.57,0.686,1.61,0.613c0.106-0.007,0.336-0.076,0.688-0.208c0.352-0.132,0.607-0.204,0.768-0.215
	c0.08-0.005,0.271,0.035,0.571,0.121c0.905-0.063,2.002-0.086,3.288-0.069c1.205-0.004,2.696-0.109,4.476-0.313
	c0.353,0.055,0.542,0.095,0.571,0.119c0.175,0.201,0.263,0.314,0.265,0.34c0.004,0.053-0.102,0.173-0.315,0.361
	c-0.216,0.188-0.32,0.308-0.317,0.36c0.008,0.106,0.052,0.17,0.134,0.191c0.6,0.143,0.976,0.356,1.129,0.637
	c0.002,0.027,0.021,0.278,0.054,0.753c-0.064,1.014-0.087,1.64-0.07,1.878l0.169,0.107l-1.599,0.112
	c-0.135,0.009-0.222-0.005-0.265-0.042s-0.131-0.051-0.264-0.041c-0.134,0.009-0.285,0.04-0.456,0.092
	c-0.17,0.052-0.335,0.083-0.495,0.094c-1.359,0.095-2.441,0.131-3.246,0.107c-1.05-0.087-1.859-0.177-2.428-0.272
	c-0.827,0.433-1.454,0.664-1.88,0.694c-0.16,0.011-0.22,0.015-0.181,0.012c0.04-0.003-0.02,0.002-0.179,0.013
	c-0.427,0.03-0.919,0.171-1.477,0.424c-0.559,0.254-0.828,0.5-0.812,0.74c0.004,0.054,0.142,0.285,0.41,0.694
	c0.271,0.41,0.407,0.641,0.41,0.694c0.004,0.054-0.074,0.374-0.234,0.961c-0.159,0.587-0.241,1.041-0.246,1.362
	c-0.014,0.189,0.005,0.642,0.056,1.362c0.067,0.584,0.074,1.066,0.021,1.444c-0.046,0.485-0.085,0.89-0.116,1.213
	c0.01,0.134-0.164,0.333-0.52,0.599c-0.357,0.266-0.533,0.426-0.529,0.479c0.007,0.107,0.148,0.21,0.423,0.311
	c0.275,0.102,0.52,0.145,0.732,0.13c0.16-0.011,0.286-0.02,0.38-0.027c0.093-0.006,0.166-0.011,0.22-0.015
	c-0.311,0.531-0.463,0.849-0.456,0.956c0.021,0.293,0.664,0.502,1.933,0.628c0.97,0.092,1.629,0.127,1.975,0.103l9.661-0.837
	c0.068,0.21,0.235,0.586,0.501,1.13c0.265,0.544,0.401,0.856,0.406,0.936c0.006,0.079-0.119,0.209-0.374,0.387
	c-0.359,0.239-0.562,0.387-0.612,0.445c0.875,0.26,1.584,0.437,2.126,0.534C409.318,53.267,409.223,53.823,409.17,54.228
	 M374.806,29.723c-0.793,0.537-1.266,0.865-1.417,0.982c-0.241,0.392-0.405,0.725-0.493,0.999c-1.953,0.029-2.996,0.048-3.129,0.058
	c-0.159,0.011-0.478,0.06-0.953,0.147c-0.477,0.087-0.794,0.135-0.954,0.147l-2.519,0.176c-0.133,0.009-0.211,0.048-0.231,0.116
	c-0.023,0.069-0.113,0.109-0.273,0.12c-0.106,0.007-0.16-0.002-0.163-0.029c-0.026,0.002-0.015-0.025,0.035-0.083
	c0.024-0.028,0.009-0.054-0.046-0.077l-0.309,0.182l-0.76,0.054c0.353-0.319,0.494-0.597,0.425-0.833
	c-0.036-0.131-0.141-0.365-0.311-0.702c-0.171-0.335-0.259-0.544-0.265-0.624c-0.004-0.053,0.096-0.635,0.3-1.748
	c0.203-1.111,0.302-1.708,0.296-1.787c-0.031-0.453-0.289-0.877-0.771-1.272c-0.571-0.495-1.312-0.738-2.221-0.728
	c-0.269-0.008-1.002,0.03-2.2,0.114c-0.721,0.05-1.362,0.242-1.929,0.576c-1.097,0.773-1.896,1.392-2.399,1.855
	c-0.045,0.137-0.062,0.272-0.053,0.405c-0.322,0.746-0.403,1.313-0.242,1.704c0.061,0.103,0.128,0.674,0.201,1.713
	c0.046,0.666,0.11,1.217,0.194,1.653s0.125,0.627,0.121,0.574c0.009,0.133-0.206,0.309-0.646,0.527
	c-0.723,0.399-1.091,0.598-1.104,0.599s-0.052,0.024-0.115,0.068c-0.063,0.045-0.093,0.107-0.088,0.187
	c-0.002-0.026,0.498,0.22,1.498,0.739c0.416,0.212,0.636,0.478,0.658,0.797l0.673,9.632c0.006,0.08-0.17,0.347-0.526,0.8
	c-0.356,0.454-0.531,0.72-0.525,0.8c0.002,0.027,0.216,0.226,0.644,0.598c0.428,0.371,0.677,0.675,0.746,0.911
	c0.042,0.212,0.01,0.521-0.095,0.931c-0.127,0.491-0.184,0.816-0.173,0.976c0.021,1.069,0.179,1.795,0.473,2.176
	c0.205,0.253,0.857,0.468,1.953,0.646c1.097,0.178,2.018,0.241,2.765,0.188c2.398-0.167,3.972-1.402,4.722-3.703
	c0.091-0.221,0.097-0.515,0.018-0.885l-0.141-0.874c-0.02-0.266,0.019-0.684,0.112-1.253c0.095-0.569,0.14-0.879,0.137-0.933
	c-0.038-0.533-0.31-1.344-0.813-2.433c2.352-0.459,4.433-0.752,6.244-0.879c0.106-0.007,0.441-0.004,1.005,0.01
	c0.563,0.015,0.911,0.017,1.044,0.008c0.133-0.01,0.238-0.043,0.315-0.103c0.076-0.058,0.193-0.093,0.354-0.105
	c0.399-0.028,0.64,0.145,0.719,0.515c0.006,0.082-0.125,0.703-0.392,1.867c-0.267,1.163-0.397,1.771-0.395,1.825
	c0.006,0.081,0.156,0.326,0.452,0.736c0.329,0.489,0.541,0.837,0.637,1.046c0.111,0.45,0.177,0.81,0.195,1.078
	c0.197,0.148,0.387,0.268,0.567,0.364c0.181,0.095,0.281,0.276,0.3,0.545c0.069,0.991-0.234,1.82-0.911,2.487
	c-0.776,0.755-1.924,1.488-3.44,2.201c-1.517,0.711-2.809,1.105-3.873,1.179c-0.134,0.01-1.479,0.117-4.034,0.323
	c-2.556,0.205-3.901,0.313-4.034,0.322c-0.266,0.019-0.785-0.025-1.555-0.132c-0.771-0.107-1.212-0.183-1.322-0.229
	c-0.306-0.166-0.556-0.296-0.75-0.389c-0.358-0.162-0.619-0.238-0.779-0.227c-0.025,0.002-0.47,0.16-1.332,0.475
	c-0.861,0.314-1.679,0.499-2.45,0.553c-1.359,0.095-2.828-0.137-4.407-0.696s-2.659-1.179-3.242-1.862
	c-0.409-0.48-0.652-1.279-0.729-2.398c-0.091-1.279-0.079-2.458,0.032-3.537c0.059-0.325,0.131-0.638,0.217-0.939
	c0.078-0.407,0.069-0.728-0.027-0.962c-0.372-1.099-0.562-1.714-0.571-1.848l1.356-7.605c-0.075-0.289-0.244-0.799-0.509-1.531
	c-0.231-0.626-0.351-0.979-0.355-1.059c-0.004-0.053,0.155-0.272,0.476-0.656c0.321-0.384,0.479-0.616,0.474-0.696
	c-0.021-0.293-0.315-0.493-0.885-0.601c-0.57-0.107-0.915-0.25-1.034-0.429c-0.303-0.487-0.479-1.104-0.531-1.851
	c-0.004-0.053,0.047-0.27,0.155-0.653c0.106-0.382,0.167-0.668,0.181-0.856c0.021-0.082,0.002-0.348-0.056-0.8
	c-0.054-0.371-0.033-0.666,0.059-0.887c0.546-1.377,1.017-2.307,1.411-2.79c0.932-1.216,2.281-2.033,4.046-2.451
	c0.552-0.146,1.117-0.293,1.696-0.44c0.733-0.212,1.354-0.336,1.861-0.372c0.106-0.007,0.313-0.008,0.622-0.003
	c0.309,0.006,0.556,0.001,0.742-0.012c0.133-0.009,0.665-0.16,1.595-0.453c0.931-0.292,1.462-0.443,1.596-0.452
	c0.08-0.006,0.453,0.068,1.12,0.222c0.666,0.155,1.161,0.234,1.482,0.238c3.647,0.093,6.395,0.129,8.24,0.107
	c1.237,0.074,2.905,0.573,5.005,1.497c0.128,0.313,0.245,0.639,0.35,0.98c0.226,0.546,0.698,0.794,1.418,0.744
	c0.186-0.013,0.397-0.054,0.634-0.125c0.39,1.366,0.666,2.444,0.828,3.236c0.004,0.054,0.126,0.266,0.365,0.637
	c0.24,0.372,0.363,0.597,0.369,0.677C375.485,29.1,375.267,29.423,374.806,29.723 M341.231,55.003
	c0.061,0.879,0.145,1.697,0.252,2.452c0.105,0.756,0.161,1.16,0.165,1.214c-0.231,0.15-0.586,0.242-1.065,0.275
	c-0.16,0.011-0.731,0.064-1.716,0.16c-0.984,0.095-1.556,0.149-1.716,0.16l-1.359,0.095c-0.153-0.284-0.307-0.567-0.461-0.851
	c-0.266-0.357-0.731-0.511-1.397-0.464c-0.507,0.035-0.877,0.195-1.111,0.479c-0.235,0.284-0.463,0.554-0.687,0.811l-1.398,0.098
	c-0.107,0.007-0.356-0.015-0.748-0.068c-0.392-0.053-0.655-0.075-0.788-0.066c-0.133,0.01-0.358,0.038-0.676,0.088
	c-0.318,0.048-0.571,0.08-0.757,0.093l-0.174-2.478c-0.002-0.027,0.05-0.252,0.154-0.674c0.104-0.422,0.137-0.712,0.1-0.87
	c-0.04-0.185-0.067-0.384-0.081-0.597c-0.032-0.453,0.012-1.152,0.134-2.098c0.111-1.078,0.176-1.886,0.191-2.423
	c-0.015-0.587-0.132-1.115-0.352-1.582c-0.094-0.207-0.15-0.431-0.167-0.671c-0.009-0.133,0.106-0.971,0.346-2.514
	c0.112-0.704,0.116-1.789,0.015-3.254c-0.052-0.72-0.233-1.403-0.545-2.051c-0.059-0.049-0.122-0.111-0.194-0.187
	c-0.073-0.075-0.111-0.153-0.117-0.233l-0.408-5.835c0.288-0.475,0.49-0.837,0.607-1.086l-0.324-4.637
	c-0.002-0.026-0.125-0.345-0.369-0.958c-0.243-0.612-0.389-1.063-0.436-1.355c-0.227-1.323-0.355-2.01-0.385-2.061
	c0.155-0.065,0.474-0.114,0.953-0.147c0.106-0.008,0.278-0.04,0.516-0.097c0.237-0.056,0.422-0.089,0.556-0.099
	c0.719-0.05,1.266-0.001,1.636,0.147c0.372,0.148,0.639,0.216,0.799,0.205c1.064-0.074,1.704-0.333,1.913-0.776
	c0.211-0.443,0.688-0.691,1.435-0.743c0.771-0.054,1.521-0.066,2.246-0.037c1.214,0.13,2.145,0.239,2.794,0.327
	c-0.08,1.532-0.078,2.897,0.006,4.096c0.02,0.294,0.136,0.801,0.347,1.522c0.211,0.722,0.318,1.109,0.322,1.162
	c0.023,0.32-0.054,0.566-0.229,0.739c-0.177,0.173-0.354,0.32-0.532,0.439c-0.029-0.024-0.039,0.017-0.032,0.123
	c0.01,0.133,0.344,0.311,1.002,0.532c0.331,0.138,0.514,0.46,0.549,0.966c0.016,0.213-0.008,0.556-0.067,1.029
	c-0.062,0.473-0.073,0.788-0.035,0.946l1.438,8.494c0.005,0.08-0.114,0.377-0.359,0.889c-0.245,0.513-0.365,0.809-0.36,0.888
	c0.004,0.054,0.131,0.146,0.381,0.275c0.25,0.13,0.405,0.247,0.466,0.349c0.067,0.183,0.075,0.491,0.025,0.922
	c-0.121,0.571-0.178,0.91-0.17,1.016c-0.005,0.322,0.243,0.612,0.743,0.872l0.168,2.398L341.231,55.003z M324.816,29.316
	c-0.102,0.089-0.23,0.152-0.388,0.19c-2.539,0.448-3.863,0.676-3.97,0.683c-0.105,0.008-0.187,0-0.242-0.023
	c-0.056-0.022-0.122-0.031-0.202-0.026c-0.213,0.015-0.609,0.097-1.188,0.244c-0.657,0.18-1.022,0.312-1.096,0.398
	c-0.245,0.338-0.35,0.761-0.313,1.267c0.007,0.107,0.018,0.253,0.03,0.439c0.013,0.187,0.024,0.334,0.031,0.44
	c0.034,0.48-0.075,0.849-0.324,1.107c-0.702,0.692-1.051,1.051-1.049,1.078c0.013,0.186,0.17,0.336,0.473,0.448
	c0.302,0.114,0.604,0.226,0.907,0.339c0.268,2.31,0.342,3.738,0.219,4.282c-0.041,0.19-0.051,0.419-0.032,0.685
	c0.012,0.16,0.345,1.288,0.999,3.384c0.03,0.052,0.1,0.167,0.205,0.347c0.106,0.18,0.163,0.31,0.168,0.39
	c0.004,0.053-0.163,0.54-0.5,1.46c-0.337,0.921-0.503,1.421-0.498,1.501l0.639,9.113c0.003,0.053,0.103,0.146,0.3,0.28
	c0.197,0.133,0.311,0.239,0.344,0.317c0.308,0.567,0.471,0.998,0.492,1.291l0.072,1.039c-1.494,0.078-4.17,0.292-8.027,0.642
	c-0.107,0.007-0.378,0.053-0.813,0.137c-0.437,0.084-0.734,0.132-0.895,0.143c-0.24,0.017-0.61-0.105-1.11-0.364
	c-0.5-0.26-1.123-0.363-1.868-0.311c-0.107,0.007-0.308,0.115-0.601,0.323c-0.293,0.207-0.73,0.372-1.311,0.493
	c-0.521-0.178-0.789-0.373-0.805-0.586l-0.324-7.528c-0.003-0.026-0.062-0.491-0.179-1.393c-0.065-0.558-0.057-1,0.028-1.328
	c0.359-1.363,0.514-2.405,0.464-3.125c-0.028-0.399-0.107-0.768-0.238-1.107c-0.229-0.6-0.262-1.816-0.095-3.649
	c0.012-0.214,0.337-0.538,0.978-0.972c0.638-0.432,0.957-0.662,0.955-0.689c-0.022-0.32-0.73-0.685-2.125-1.096
	c-0.127-1.036-0.242-1.937-0.35-2.707c-0.243-0.786-0.46-1.4-0.65-1.842c-0.176-1.353-0.412-2.434-0.71-3.244
	c-0.008-0.106-0.203-0.226-0.588-0.36c-1.387,0.07-2.414,0.128-3.08,0.175c-0.375,0-0.985-0.031-1.834-0.093
	c-0.847-0.061-1.338-0.087-1.471-0.078c-0.16,0.012-0.279,0.034-0.356,0.066c-0.078,0.032-0.197,0.054-0.357,0.065
	c-0.427,0.03-0.694-0.166-0.804-0.587c0.006,0.08-0.011-0.146-0.048-0.679c-0.045-0.64-0.05-1.001-0.016-1.083
	c0.034-0.083,0.197-0.235,0.49-0.456c0.292-0.222,0.436-0.372,0.43-0.452c-0.021-0.32-0.613-0.533-1.771-0.639
	c0.22-1.06,0.342-1.805,0.366-2.235c0.266-0.019,0.719-0.05,1.357-0.095c0.643-0.018,1.016-0.031,1.122-0.038
	c0.16-0.011,1.342-0.147,3.546-0.409c2.204-0.261,3.386-0.397,3.546-0.408c1.705-0.12,2.865-0.187,3.48-0.204
	c1.762-0.069,2.979-0.074,3.653-0.014c1.268,0.126,2.301,0.16,3.101,0.104c0.105-0.007,1.38-0.158,3.823-0.452
	c2.815-0.321,4.742-0.533,5.779-0.636c0.337-0.147,0.532-0.223,0.586-0.227c0.347-0.024,0.754,0.056,1.223,0.24
	c0.507,1.509,0.774,2.465,0.803,2.87C325.208,26.322,325.082,27.374,324.816,29.316 M282.565,52.278
	c-0.712-0.218-1.11-0.364-1.195-0.439c-0.225-0.145-0.346-0.35-0.365-0.617c-0.02-0.293-0.04-0.766-0.059-1.422
	c-0.021-0.654-0.039-1.128-0.059-1.421c-0.005-0.053-0.069-0.122-0.196-0.207c-0.126-0.085-0.192-0.168-0.198-0.248
	c-0.003-0.053,0.03-0.243,0.102-0.569c0.07-0.326,0.101-0.569,0.09-0.729c-0.002-0.026-0.046-0.264-0.13-0.714
	c-0.049-0.291-0.036-0.506,0.034-0.645c0.187-0.789,0.251-1.383,0.197-1.781c0.243-1.114,0.365-1.658,0.367-1.632
	c-0.05-0.719-0.258-1.91-0.623-3.571c-0.301-0.728-0.564-1.286-0.79-1.672c-0.059-0.102-0.082-0.248-0.068-0.437l-0.024-0.36
	c-0.008-0.106-0.116-0.219-0.325-0.338c-0.209-0.119-0.316-0.205-0.32-0.259c-0.005-0.08,0.099-0.616,0.311-1.608
	c0.211-0.992,0.314-1.528,0.309-1.608c-0.007-0.106-0.161-0.29-0.46-0.55c-0.3-0.261-0.525-0.432-0.679-0.515
	s-0.601-0.159-1.341-0.228c-0.742-0.068-1.3-0.09-1.672-0.064c-0.533,0.038-1.299,0.199-2.296,0.482
	c-0.998,0.285-1.607,0.554-1.831,0.811c-0.223,0.257-0.381,0.683-0.473,1.278c-0.133,0.786-0.209,1.233-0.227,1.341
	c-0.071,0.916-0.078,1.76-0.024,2.532c0.007,0.107-0.104,0.235-0.335,0.385c-0.331,0.238-0.496,0.37-0.494,0.396
	c-0.252,0.232-0.37,0.455-0.354,0.668c0.006,0.08,0.227,0.292,0.667,0.636c0.438,0.344,0.676,0.582,0.712,0.713
	c0.101,0.288,0.143,0.7,0.127,1.236c-0.001,0.75,0,1.152,0.004,1.205c0.021,0.32,0.011,0.836-0.032,1.548
	c-0.045,0.713-0.055,1.229-0.033,1.549c0.011,0.133,0.202,0.301,0.578,0.502c0.375,0.201,0.565,0.328,0.569,0.382
	c0.005,0.079-0.094,0.194-0.298,0.342s-0.306,0.236-0.304,0.262c0.012,0.535,0.065,0.933,0.164,1.193
	c-0.252,1.759-0.39,2.665-0.411,2.72c-0.021,0.483,0.068,2.137,0.266,4.961c0.006,0.08-0.031,0.223-0.11,0.43
	c-0.08,0.206-0.117,0.336-0.112,0.389c0.003,0.054,0.106,0.294,0.311,0.722c0.204,0.427,0.326,0.746,0.368,0.958
	c0.881,0.34,1.567,0.599,2.062,0.779c0.869,0.18,1.784,0.237,2.743,0.17c0.692-0.049,1.466-0.277,2.321-0.685
	c0.958-0.468,1.501-0.935,1.63-1.399l-0.098-1.399c-0.006-0.079-0.045-0.251-0.116-0.513c-0.042-0.212-0.054-0.385-0.037-0.52
	c0.021-0.082,0.536-0.372,1.546-0.871c1.009-0.499,1.505-0.869,1.489-1.108C283.429,52.579,283.138,52.425,282.565,52.278
	 M293.746,51.636c-0.09,0.824-0.107,1.434-0.053,1.832c0.309,1.745,0.461,2.578,0.456,2.498c0.078,1.119-0.453,2.146-1.592,3.083
	c-1.52,1.257-2.928,1.985-4.226,2.183c-0.786,0.242-1.375,0.444-1.765,0.606c-1.179,0.376-2.447,0.613-3.807,0.708
	c-0.134,0.009-0.632-0.03-1.493-0.117c-0.864-0.087-1.349-0.126-1.454-0.119c-0.188,0.013-0.551,0.165-1.094,0.458
	c-0.541,0.292-0.878,0.469-1.007,0.532c-0.08,0.006-0.479,0.034-1.198,0.084c-0.879,0.062-2.2,0.033-3.963-0.084
	c-1.762-0.118-3.063-0.255-3.903-0.41c-0.597-0.093-1.205-0.184-1.827-0.274c-0.892-0.125-1.599-0.277-2.12-0.454
	c-0.742-0.27-1.602-0.705-2.581-1.306c-0.337-0.217-0.764-0.589-1.283-1.115c-0.58-0.629-1.019-1.268-1.318-1.916
	c-0.301-0.648-0.579-1.285-0.836-1.909l-0.219-5.407c0.415-2.117,0.605-3.416,0.571-3.895c-0.005-0.08-0.146-0.458-0.42-1.136
	c-0.275-0.676-0.415-1.041-0.418-1.095c-0.051-0.719-0.037-1.671,0.041-2.854c0.199-0.603,0.378-1.098,0.539-1.484
	c0.042-0.164,0.05-0.619,0.024-1.367c-0.021-0.668,0.024-1.18,0.134-1.536c0.044-0.137,0.357-0.426,0.943-0.869
	c0.584-0.443,0.871-0.744,0.86-0.904c-0.003-0.053-0.034-0.104-0.091-0.154c-1.391-0.358-2.11-0.883-2.158-1.576
	c-0.025-0.346,0.179-0.876,0.611-1.589c0.432-0.713,0.953-1.305,1.562-1.776c2.667-2.06,4.934-3.156,6.799-3.287
	c0.106-0.007,0.355,0.009,0.746,0.049c0.392,0.039,0.681,0.052,0.866,0.039c0.561-0.039,1.468-0.062,2.726-0.07
	c1.259-0.007,1.913-0.013,1.968-0.017c0.16-0.011,0.369-0.079,0.628-0.204c0.292-0.047,1.037-0.113,2.235-0.197
	c0.134-0.009,0.199-0.027,0.197-0.054c-0.002-0.026,0.063-0.044,0.197-0.054c2.291-0.16,4.814-0.068,7.57,0.274
	c1.35,0.174,2.554,0.544,3.611,1.113c0.48,0.368,0.862,0.663,1.146,0.884c1.444,0.756,2.203,1.64,2.273,2.652
	c0.016,0.214,0.005,0.642-0.03,1.287c-0.018,0.136-0.087,0.475-0.21,1.019c-0.077,0.434-0.094,0.77-0.051,1.008
	c0.054,0.371,0.231,0.914,0.536,1.629c0.304,0.716,0.457,1.086,0.459,1.113c0.064,0.906-0.019,1.648-0.246,2.226
	c-0.022,0.055-0.126,0.203-0.31,0.443c-0.185,0.241-0.273,0.401-0.269,0.481c0.028,0.399,0.184,0.884,0.465,1.453
	c0.192,0.469,0.399,0.95,0.622,1.443c0.028,0.025,0.095,0.107,0.198,0.247s0.158,0.25,0.163,0.33
	c-0.004-0.053-0.098,0.127-0.283,0.542c-0.206,0.122-0.424,0.257-0.654,0.407c-0.23,0.15-0.343,0.279-0.334,0.385
	c0.004,0.054,0.211,0.253,0.624,0.599c0.411,0.346,0.664,0.596,0.755,0.75c0.224,0.895,0.313,1.612,0.271,2.15
	c0.04,0.185,0.141,0.472,0.302,0.863c0.161,0.39,0.243,0.612,0.247,0.665C293.88,50.416,293.834,50.814,293.746,51.636
	 M229.062,53.328l-0.242-0.585l0.32-0.023l0.201,0.589L229.062,53.328z M257.061,40.767c0.027,0.4-0.014,0.778-0.122,1.133
	c-0.042,0.164-0.097,0.342-0.163,0.534c-0.057,0.352-0.091,0.623-0.104,0.811c-0.059,0.7-0.088,1.238-0.088,1.612
	c-0.016,0.162,0.05,0.432,0.197,0.81s0.222,0.594,0.226,0.647l0.248,3.557c0.004,0.053-0.097,0.141-0.303,0.262
	c-0.206,0.122-0.306,0.209-0.302,0.262c-0.043,0.164-0.133,0.405-0.271,0.722c-0.139,0.318-0.206,0.503-0.202,0.556
	c0.006,0.08,0.139,0.171,0.4,0.273c0.262,0.103,0.395,0.18,0.398,0.234c0.16,0.39,0.299,1.398,0.412,3.023
	c0.019,0.267,0.089,0.69,0.21,1.271c0.12,0.58,0.182,0.884,0.184,0.91c0.035,0.507,0.06,2.392,0.074,5.658l0.128,0.112
	c-0.185,0.039-0.571,0.16-1.159,0.362c-0.588,0.202-0.962,0.308-1.122,0.319c-0.134,0.01-0.215,0.002-0.243-0.023
	s-0.123-0.031-0.282-0.02c-0.134,0.009-0.197,0.04-0.194,0.094c0.004,0.053-0.062,0.084-0.194,0.094
	c-0.054,0.003-0.414,0.015-1.082,0.035c-0.562-0.015-0.977,0.001-1.242,0.047c-0.186,0.013-0.569,0.08-1.149,0.201
	c-0.479,0.059-0.784,0.095-0.917,0.104c-0.106,0.007-1.242,0.047-3.405,0.118c-2.38,0.059-4.089,0.111-5.13,0.157
	c-1.301-2.131-2.298-3.574-2.994-4.329c-0.087-0.101-0.391-0.334-0.912-0.699c-0.521-0.365-0.843-0.664-0.966-0.896
	c-0.833-1.575-1.26-2.509-1.281-2.802c-0.015-0.213,0.134-0.478,0.447-0.795c0.312-0.316,0.467-0.5,0.463-0.554
	c-0.007-0.106-0.158-0.256-0.453-0.45c-0.295-0.194-0.536-0.284-0.722-0.271c-0.08,0.005-0.146,0.024-0.197,0.054
	c-0.052,0.03-0.117,0.048-0.197,0.054c0.134-0.01-0.539-0.056-2.018-0.14c-0.807-1.202-1.515-2.144-2.125-2.824
	c-0.384-0.508-0.754-1.018-1.111-1.529c-0.729-0.859-1.454-1.263-2.173-1.213c-0.106,0.007-0.285,0.047-0.534,0.118
	c-0.25,0.071-0.468,0.113-0.653,0.126c-0.471,0.167-0.699,0.343-0.687,0.529c-0.019-0.266,0.093,0.182,0.335,1.343
	c0.045,0.264,0.021,0.628-0.071,1.089c-0.156,0.573-0.229,0.94-0.218,1.1c0.099,0.771,0.21,1.404,0.334,1.904
	c-0.114,0.276-0.219,0.511-0.312,0.705c0.073,0.664,0.162,1.167,0.266,1.507c0.001,0.402-0.07,0.902-0.216,1.501
	c-0.045,0.138,0.012,0.375,0.17,0.711c0.157,0.338,0.242,0.586,0.253,0.746s-0.023,0.43-0.104,0.81
	c-0.081,0.38-0.114,0.664-0.102,0.851c0.014,0.186,0.096,0.508,0.248,0.966s0.225,0.821,0.217,1.09
	c-0.178,1.324-0.335,2.352-0.473,3.085c-0.215,0.015-0.682-0.013-1.403-0.083c-0.72-0.07-1.147-0.1-1.281-0.091
	c-0.512,0.036-0.914,0.151-1.211,0.346c-0.298,0.195-0.513,0.297-0.646,0.306c-0.135,0.01-0.209,0.015-0.222,0.016
	c-0.014,0.001-0.087,0.006-0.222,0.015l-4.15,0.29l-0.448-6.408c-0.023-0.347,0.247-0.863,0.816-1.547
	c0.199-0.201,0.376-0.361,0.528-0.479c0.019-0.109,0.012-0.417-0.024-0.924l-0.205-0.067c-0.025-0.347-0.02-0.642,0.018-0.886
	c-0.036-0.132-0.087-0.477-0.152-1.036c-0.033-0.481-0.126-0.849-0.278-1.107c-0.032-0.078-0.223-0.22-0.572-0.424
	c-0.349-0.203-0.543-0.384-0.58-0.543c0.013-0.59,0.057-1.104,0.133-1.538c-0.197-0.147-0.319-0.28-0.368-0.397
	c-0.049-0.117-0.127-0.381-0.236-0.789c-0.108-0.408-0.165-0.639-0.169-0.692l-0.428-6.129c-0.005-0.053,0.06-0.205,0.188-0.456
	c0.129-0.25,0.191-0.428,0.184-0.536c0.019-0.108-0.01-0.509-0.084-1.201c-0.066-0.559-0.055-0.962,0.035-1.21
	c0.047-0.111,0.265-0.334,0.656-0.67c0.393-0.336,0.585-0.544,0.579-0.625c-0.009-0.133-0.533-0.351-1.572-0.654l-0.57-8.171
	c3.983-0.064,7.071-0.133,9.263-0.206c0.215,0.012,0.556,0.108,1.023,0.29c0.385,0.133,0.856,0.181,1.416,0.142
	c0.959-0.068,1.683-0.252,2.171-0.554c0.444-0.138,0.8-0.23,1.064-0.275c1.121,0.725,1.784,1.2,1.988,1.427
	c0.63,0.974,1.069,1.719,1.321,2.237c0.032,0.105,0.226,0.272,0.576,0.502c0.352,0.23,0.545,0.424,0.583,0.582
	c0.915,2.373,1.385,3.718,1.407,4.038c-0.008-0.106-0.023,0.042-0.049,0.445c-0.231,0.151-0.424,0.258-0.58,0.322
	c0.003,0.054,0.009,0.134,0.016,0.24c0.009,0.107,0.014,0.187,0.018,0.24c0.193,0.093,0.617,0.204,1.269,0.333
	s1.078,0.306,1.282,0.533c0.53,0.685,0.903,1.235,1.119,1.648c1.9,1.902,3.064,3.053,3.495,3.451
	c0.171,0.149,0.549,0.202,1.135,0.161c1.306-0.091,1.944-0.349,1.914-0.776c-0.002-0.026-0.066-0.745-0.191-2.155
	c-0.099-1.038-0.158-1.89-0.179-2.558c-0.01-0.91,0.037-1.582,0.14-2.018c0.018-0.135-0.031-0.359-0.146-0.673
	c-0.116-0.313-0.174-0.483-0.176-0.509c-0.02-0.267-0.017-0.414,0.009-0.443c0.255-0.178,0.511-0.343,0.769-0.495
	c0.461-0.3,0.685-0.543,0.671-0.73c-0.018-0.266-0.53-0.511-1.536-0.736c-0.188-0.389-0.283-0.596-0.285-0.623
	c0.002,0.027,0.043-0.438,0.124-1.394c0.08-0.956,0.104-1.674,0.069-2.154c-0.027-0.774-0.218-1.403-0.573-1.887
	c0.692-0.049,3.481-0.177,8.366-0.385c0.08-0.005,0.296,0,0.645,0.016c0.349,0.015,0.59,0.019,0.724,0.009l1.073-0.155
	c0.584-0.067,1.051-0.1,1.399-0.098c0.139,0.071,0.257,0.799,0.354,2.184c-0.265,2.348-0.311,4.173-0.14,5.472
	c0.004,0.054,0.056,0.137,0.157,0.25c0.103,0.114,0.154,0.197,0.158,0.25c0.004,0.054-0.015,0.162-0.057,0.325
	c-0.043,0.164-0.061,0.286-0.055,0.366c-0.843,0.595-1.26,0.945-1.252,1.051c0.002,0.027,0.32,0.199,0.96,0.515
	c0.638,0.317,0.977,0.582,1.019,0.793C256.974,40.105,257.038,40.448,257.061,40.767 M194.006,38.463
	c-0.101,0.089-0.231,0.152-0.389,0.19c-2.539,0.449-3.862,0.676-3.968,0.683c-0.107,0.008-0.188,0-0.243-0.023
	c-0.055-0.022-0.122-0.031-0.202-0.026c-0.214,0.015-0.61,0.097-1.188,0.244c-0.657,0.18-1.022,0.312-1.097,0.398
	c-0.244,0.338-0.348,0.761-0.313,1.267c0.008,0.107,0.018,0.253,0.031,0.44c0.013,0.186,0.023,0.333,0.031,0.439
	c0.033,0.48-0.075,0.849-0.325,1.107c-0.701,0.692-1.051,1.051-1.049,1.078c0.013,0.186,0.171,0.336,0.473,0.449
	c0.303,0.113,0.605,0.225,0.908,0.338c0.268,2.31,0.341,3.738,0.219,4.282c-0.041,0.19-0.051,0.419-0.033,0.685
	c0.012,0.16,0.345,1.288,1,3.384c0.03,0.052,0.098,0.167,0.205,0.347c0.106,0.18,0.162,0.31,0.168,0.39
	c0.004,0.054-0.163,0.54-0.5,1.461c-0.338,0.921-0.503,1.42-0.498,1.5l0.637,9.113c0.004,0.053,0.104,0.146,0.301,0.28
	c0.196,0.133,0.311,0.239,0.344,0.317c0.307,0.567,0.471,0.998,0.491,1.291l0.073,1.039c-1.494,0.078-4.17,0.292-8.028,0.642
	c-0.106,0.008-0.378,0.053-0.813,0.137c-0.436,0.084-0.734,0.132-0.894,0.143c-0.24,0.017-0.61-0.105-1.11-0.364
	c-0.5-0.26-1.123-0.363-1.869-0.311c-0.107,0.007-0.307,0.115-0.6,0.323c-0.294,0.207-0.731,0.372-1.311,0.493
	c-0.521-0.178-0.789-0.373-0.804-0.586l-0.326-7.528c-0.001-0.026-0.061-0.491-0.177-1.393c-0.066-0.558-0.057-1,0.027-1.327
	c0.36-1.364,0.515-2.406,0.465-3.125c-0.028-0.4-0.108-0.769-0.239-1.108c-0.229-0.6-0.261-1.816-0.094-3.648
	c0.011-0.215,0.337-0.539,0.976-0.972c0.639-0.433,0.958-0.663,0.956-0.69c-0.022-0.319-0.731-0.685-2.125-1.096
	c-0.126-1.036-0.243-1.937-0.35-2.707c-0.242-0.786-0.459-1.4-0.651-1.842c-0.175-1.353-0.411-2.434-0.709-3.244
	c-0.007-0.106-0.203-0.226-0.587-0.36c-1.388,0.071-2.415,0.129-3.08,0.175c-0.376,0-0.986-0.031-1.834-0.093
	c-0.848-0.061-1.338-0.087-1.471-0.077c-0.16,0.011-0.279,0.033-0.357,0.065c-0.078,0.032-0.197,0.054-0.357,0.065
	c-0.427,0.03-0.695-0.166-0.804-0.587c0.005,0.08-0.011-0.146-0.048-0.679c-0.045-0.639-0.05-1.001-0.015-1.083
	c0.034-0.083,0.197-0.235,0.49-0.456c0.292-0.221,0.436-0.372,0.43-0.452c-0.022-0.32-0.613-0.533-1.772-0.639
	c0.221-1.06,0.342-1.804,0.366-2.235c0.266-0.018,0.72-0.05,1.359-0.095c0.642-0.018,1.015-0.031,1.122-0.038
	c0.16-0.011,1.341-0.147,3.546-0.409c2.204-0.26,3.386-0.397,3.546-0.408c1.705-0.119,2.865-0.187,3.48-0.203
	c1.762-0.07,2.98-0.075,3.653-0.015c1.267,0.126,2.301,0.16,3.1,0.105c0.106-0.008,1.381-0.158,3.824-0.453
	c2.816-0.32,4.742-0.532,5.779-0.636c0.338-0.147,0.533-0.223,0.587-0.226c0.346-0.025,0.753,0.056,1.222,0.239
	c0.507,1.509,0.774,2.466,0.803,2.87C194.399,35.469,194.272,36.521,194.006,38.463 M150.142,47.842
	c-0.396-0.106-0.785-0.212-1.167-0.32c0.23-0.15,0.326-0.304,0.289-0.462c-0.004-0.053-0.112-0.246-0.322-0.58
	c-0.122-0.205-0.17-0.898-0.145-2.078c-0.01-0.909-0.377-1.553-1.099-1.931c-1.14-0.589-2.762-0.811-4.866-0.664
	c-0.107,0.007-0.503,0.082-1.189,0.224c-0.687,0.142-1.163,0.222-1.429,0.24c0.044,0.64,0.041,1.644-0.011,3.013
	c-0.051,1.369-0.053,2.387-0.007,3.053c0.015,0.214,0.099,0.549,0.251,1.007c0.153,0.458,0.236,0.793,0.251,1.006
	c0.003,0.429-0.103,1.975-0.318,4.641c0.004,0.054,0.062,0.217,0.175,0.49c0.113,0.273,0.173,0.463,0.18,0.57
	c0.144,2.052,0.226,3.224,0.246,3.517c0.68,0.193,1.153,0.28,1.419,0.262c-0.026,0.002,0.207-0.081,0.703-0.25
	c1.64-0.195,3.324-0.701,5.054-1.518c0.414-0.19,0.701-0.464,0.863-0.824c0.07-0.138,0.133-0.384,0.189-0.736
	c0.063-1.37,0.059-2.387-0.014-3.051c0.103-0.811,0.086-1.438-0.052-1.884c0.63-0.526,1.16-0.777,1.588-0.754
	c-0.009-0.133-0.082-0.396-0.216-0.788c-0.134-0.392-0.182-0.683-0.141-0.874c-0.006-0.08,0.058-0.218,0.192-0.415
	c0.133-0.196,0.198-0.321,0.194-0.375C150.744,48.122,150.537,47.949,150.142,47.842 M163.793,70.764
	c-0.051,0.231-0.072,0.4-0.065,0.507c-0.457-0.022-1.138-0.001-2.044,0.062c-0.719,0.051-1.416-0.061-2.091-0.335
	c-0.676-0.274-1.08-0.407-1.213-0.397c-0.4,0.027-0.877,0.195-1.431,0.501s-0.93,0.574-1.128,0.802l-0.52,0.036
	c-0.16,0.012-0.362-0.008-0.607-0.058c-0.244-0.05-0.406-0.072-0.486-0.066c-1.264-0.072-2.429-0.071-3.494,0.003
	c0.049-0.057,0.021-0.176-0.085-0.355c-0.107-0.18-0.161-0.297-0.165-0.35c-0.006-0.08,0.084-0.14,0.268-0.179
	c0.039-0.218,0.034-0.672-0.015-1.365c-0.009-0.134-0.002-0.228,0.021-0.283c0.959-0.442,1.435-0.729,1.425-0.862
	c-0.007-0.107-0.338-0.245-0.992-0.413c-0.381-0.08-0.747-0.148-1.099-0.204c-1.613-0.851-2.499-1.66-2.66-2.425
	c-0.038-0.158-0.329-0.298-0.872-0.421c-0.353-0.055-0.719-0.123-1.099-0.204c-1.225-0.289-2.264-0.404-3.117-0.344
	c-0.693,0.048-1.165,0.189-1.416,0.42c-0.099,0.114-0.114,0.289-0.044,0.525c0.131,0.339,0.197,0.522,0.199,0.549
	c0.025,0.346-0.038,0.892-0.186,1.639c-0.149,0.747-0.222,1.133-0.22,1.16c0.005,0.08,0.186,0.656,0.542,1.729
	c0.356,1.073,0.537,1.65,0.543,1.73l0.056,0.799c-0.537-0.016-1.538,0.027-3.003,0.13c-0.16,0.011-0.473,0.046-0.937,0.105
	c-0.464,0.059-0.776,0.095-0.936,0.106c-0.32,0.022-0.757-0.102-1.311-0.37c-0.555-0.27-1.311-0.37-2.271-0.303
	c-0.239,0.016-0.682,0.208-1.325,0.574c-0.149,0.171-0.272,0.327-0.369,0.468c-0.257,0.151-0.692,0.249-1.305,0.292l-1.559,0.109
	c-0.479,0.033-0.755-0.469-0.828-1.509c-0.028-0.399-0.024-1.009,0.013-1.828c0.036-0.819,0.032-1.348-0.011-1.585
	c-0.024-0.347-0.29-1.466-0.797-3.359c-0.011-0.159,0.213-0.791,0.671-1.894c0.126-0.491,0.191-0.897,0.196-1.218
	c-0.152-0.257-0.226-0.359-0.222-0.306l-0.185-2.638c-0.005-0.08,0.199-0.215,0.615-0.404c0.57-0.254,0.908-0.412,1.011-0.473
	c0.232-0.123,0.341-0.291,0.326-0.505c-0.004-0.053-0.157-0.135-0.459-0.249c-0.383-0.106-0.616-0.197-0.702-0.272
	c-0.508-0.366-0.767-0.629-0.778-0.789c-0.004-0.053,0.028-0.169,0.096-0.348c0.068-0.178,0.1-0.294,0.096-0.348
	c0.054-0.378-0.022-0.788-0.226-1.229c-0.206-0.441-0.327-0.941-0.366-1.501l-0.079-1.119c-0.005-0.08-0.069-0.316-0.19-0.709
	c-0.121-0.394-0.165-0.725-0.13-0.995c0.086-0.301,0.172-0.601,0.259-0.902c0.126-0.491,0.143-0.827,0.05-1.008
	c-0.623-1.241-0.958-2.208-1.006-2.901c-0.004-0.053,0.217-0.618,0.664-1.693c0.447-1.076,0.667-1.667,0.659-1.774
	c-0.014-0.212-0.141-0.873-0.379-1.981c-0.032-0.078-0.13-0.218-0.291-0.422c-0.161-0.202-0.245-0.344-0.25-0.424
	c-0.104-1.492,0.416-2.278,1.562-2.358c0.133-0.009,0.634-0.018,1.504-0.025c0.87-0.007,1.371-0.016,1.505-0.025
	c0.16-0.011,0.694-0.122,1.603-0.333c0.909-0.21,1.43-0.321,1.563-0.33c0.133-0.009,0.411,0.045,0.835,0.162
	c0.423,0.118,0.703,0.199,0.84,0.243c0.593,0.066,1.29,0.07,2.09,0.014l1.319-0.092c0.133-0.009,0.475-0.1,1.025-0.272
	c0.55-0.172,0.891-0.263,1.025-0.273c0.133-0.009,0.849-0.005,2.149,0.011c1.3,0.016,2.016,0.019,2.15,0.01
	c0.133-0.009,0.314-0.002,0.543,0.022c0.229,0.024,0.397,0.033,0.504,0.025c2.242-0.103,4.016-0.2,5.321-0.292
	c0.777,0,1.599,0.089,2.469,0.27c0.761,0.161,1.641,0.487,2.639,0.98c1.106,0.512,1.768,0.974,1.985,1.387
	c0.474,1.038,0.825,1.844,1.052,2.417c0.751,1.929,1.148,3.199,1.191,3.812c0.002,0.027-0.026,0.21-0.083,0.548
	c-0.056,0.339-0.079,0.588-0.068,0.748c0.043,0.613,0.048,1.068,0.015,1.364c-0.062,1.022-0.092,1.547-0.09,1.573
	c0.041,0.212,0.136,0.62,0.286,1.225c0.115,0.501,0.176,0.791,0.181,0.871l0.171,2.438c0.043,0.613-0.111,1.48-0.461,2.602
	c-0.197,0.63-0.435,1.049-0.715,1.255c-0.621,0.312-1.153,0.563-1.594,0.754c-0.128,0.09-0.258,0.239-0.39,0.449
	c-0.133,0.21-0.276,0.361-0.431,0.452c-1.152,0.376-2.042,0.665-2.67,0.87c-0.041,0.19,0.121,0.393,0.484,0.608
	c0.561,0.363,0.869,0.556,0.924,0.578c0.088,0.102,0.188,0.295,0.302,0.582c0.114,0.287,0.228,0.48,0.342,0.578
	c0.113,0.1,0.469,0.302,1.066,0.608c0.597,0.307,0.997,0.56,1.198,0.76c1.701,1.729,2.689,3.038,2.966,3.929
	c0.096,0.235,0.291,0.716,0.583,1.446c0.284,0.622,0.429,0.974,0.435,1.054C163.868,70.391,163.844,70.533,163.793,70.764
	 M115.425,63.965c-0.712-0.217-1.11-0.364-1.195-0.438c-0.225-0.145-0.346-0.351-0.365-0.617c-0.02-0.293-0.04-0.767-0.059-1.422
	c-0.02-0.654-0.039-1.128-0.059-1.422c-0.004-0.053-0.069-0.122-0.196-0.207c-0.126-0.084-0.192-0.167-0.198-0.247
	c-0.003-0.053,0.03-0.243,0.101-0.569c0.071-0.327,0.101-0.57,0.09-0.73c-0.002-0.026-0.046-0.264-0.131-0.713
	c-0.047-0.291-0.035-0.506,0.036-0.645c0.185-0.79,0.251-1.383,0.196-1.781c0.244-1.115,0.366-1.659,0.368-1.633
	c-0.05-0.719-0.258-1.909-0.623-3.571c-0.301-0.728-0.564-1.285-0.79-1.671c-0.059-0.103-0.082-0.249-0.068-0.437l-0.025-0.36
	c-0.008-0.106-0.116-0.219-0.325-0.339c-0.21-0.119-0.316-0.205-0.32-0.259c-0.005-0.079,0.098-0.615,0.31-1.608
	c0.211-0.991,0.314-1.528,0.309-1.608c-0.008-0.106-0.161-0.29-0.46-0.55c-0.3-0.26-0.526-0.431-0.679-0.515
	c-0.153-0.082-0.6-0.158-1.341-0.227c-0.742-0.069-1.299-0.09-1.671-0.064c-0.534,0.037-1.299,0.198-2.296,0.482
	c-0.998,0.284-1.608,0.554-1.831,0.811c-0.223,0.256-0.381,0.683-0.473,1.278c-0.133,0.786-0.209,1.233-0.227,1.341
	c-0.071,0.915-0.078,1.759-0.024,2.532c0.007,0.107-0.104,0.235-0.335,0.385c-0.331,0.238-0.496,0.37-0.494,0.396
	c-0.252,0.232-0.37,0.454-0.355,0.667c0.005,0.08,0.227,0.292,0.667,0.636c0.439,0.345,0.676,0.582,0.712,0.714
	c0.101,0.287,0.143,0.699,0.127,1.236c-0.002,0.75,0,1.151,0.004,1.204c0.022,0.32,0.011,0.837-0.032,1.549
	c-0.045,0.713-0.055,1.229-0.033,1.548c0.01,0.134,0.202,0.301,0.578,0.502c0.375,0.202,0.565,0.329,0.568,0.382
	c0.006,0.08-0.093,0.194-0.297,0.342c-0.204,0.149-0.305,0.236-0.303,0.262c0.011,0.536,0.065,0.933,0.164,1.194
	c-0.252,1.758-0.39,2.665-0.412,2.719c-0.021,0.484,0.069,2.138,0.266,4.962c0.006,0.08-0.031,0.223-0.11,0.429
	c-0.08,0.207-0.117,0.337-0.114,0.39c0.004,0.054,0.108,0.294,0.312,0.721c0.204,0.428,0.326,0.747,0.368,0.958
	c0.881,0.34,1.568,0.6,2.063,0.78c0.869,0.18,1.783,0.237,2.743,0.169c0.692-0.048,1.466-0.277,2.321-0.684
	c0.958-0.469,1.501-0.935,1.63-1.399l-0.098-1.399c-0.006-0.08-0.045-0.251-0.117-0.514c-0.041-0.211-0.053-0.384-0.036-0.519
	c0.021-0.082,0.536-0.372,1.546-0.872c1.009-0.498,1.505-0.868,1.489-1.108C116.289,64.266,115.997,64.113,115.425,63.965
	 M126.605,63.324c-0.089,0.823-0.107,1.433-0.052,1.831c0.309,1.746,0.461,2.578,0.456,2.498c0.078,1.12-0.453,2.147-1.592,3.084
	c-1.519,1.257-2.927,1.985-4.225,2.183c-0.787,0.242-1.375,0.444-1.765,0.605c-1.179,0.377-2.447,0.613-3.806,0.708
	c-0.134,0.01-0.632-0.03-1.494-0.116c-0.864-0.087-1.348-0.127-1.455-0.119c-0.186,0.013-0.55,0.165-1.092,0.457
	c-0.542,0.293-0.878,0.47-1.007,0.533c-0.08,0.005-0.48,0.033-1.199,0.084c-0.879,0.061-2.2,0.033-3.962-0.085
	c-1.762-0.118-3.064-0.254-3.904-0.41c-0.596-0.092-1.205-0.183-1.827-0.273c-0.892-0.126-1.599-0.277-2.12-0.455
	c-0.742-0.269-1.602-0.705-2.581-1.305c-0.337-0.218-0.764-0.589-1.283-1.115c-0.58-0.629-1.019-1.268-1.319-1.916
	c-0.3-0.648-0.579-1.285-0.836-1.91l-0.218-5.406c0.415-2.118,0.605-3.416,0.571-3.896c-0.005-0.08-0.146-0.458-0.42-1.135
	c-0.276-0.677-0.415-1.042-0.418-1.095c-0.051-0.72-0.037-1.671,0.041-2.855c0.199-0.602,0.378-1.097,0.539-1.483
	c0.042-0.164,0.05-0.62,0.025-1.368c-0.021-0.667,0.024-1.179,0.133-1.535c0.044-0.137,0.358-0.427,0.944-0.869
	c0.584-0.443,0.871-0.744,0.86-0.904c-0.004-0.053-0.034-0.104-0.091-0.154c-1.391-0.358-2.11-0.883-2.159-1.576
	c-0.024-0.346,0.18-0.876,0.612-1.589c0.432-0.713,0.953-1.305,1.563-1.776c2.667-2.061,4.933-3.157,6.799-3.287
	c0.106-0.008,0.355,0.009,0.746,0.048c0.39,0.04,0.679,0.053,0.866,0.04c0.56-0.039,1.468-0.063,2.726-0.07
	c1.258-0.008,1.913-0.014,1.967-0.017c0.16-0.011,0.369-0.079,0.628-0.205c0.291-0.047,1.037-0.112,2.236-0.196
	c0.133-0.01,0.199-0.027,0.197-0.054c-0.002-0.026,0.063-0.045,0.197-0.054c2.291-0.16,4.814-0.069,7.569,0.274
	c1.351,0.173,2.555,0.544,3.613,1.113c0.48,0.368,0.862,0.662,1.146,0.883c1.445,0.757,2.203,1.64,2.274,2.653
	c0.015,0.213,0.004,0.642-0.031,1.287c-0.017,0.136-0.087,0.475-0.21,1.019c-0.077,0.434-0.093,0.769-0.05,1.007
	c0.053,0.372,0.231,0.915,0.536,1.63c0.304,0.715,0.457,1.086,0.459,1.112c0.064,0.906-0.019,1.648-0.246,2.226
	c-0.023,0.056-0.126,0.204-0.31,0.444c-0.184,0.24-0.273,0.4-0.268,0.48c0.028,0.4,0.183,0.885,0.463,1.454
	c0.194,0.468,0.401,0.95,0.623,1.442c0.028,0.025,0.095,0.108,0.198,0.248c0.104,0.14,0.158,0.25,0.164,0.329
	c-0.004-0.053-0.098,0.128-0.283,0.542c-0.206,0.122-0.424,0.258-0.655,0.408c-0.23,0.15-0.342,0.278-0.334,0.384
	c0.004,0.054,0.211,0.254,0.624,0.599c0.412,0.347,0.664,0.597,0.755,0.751c0.224,0.895,0.314,1.611,0.271,2.15
	c0.039,0.185,0.14,0.472,0.301,0.862c0.161,0.391,0.244,0.613,0.248,0.666C126.741,62.103,126.695,62.501,126.605,63.324
	 M91.417,75.865c-0.078,0.233-0.21,0.356-0.396,0.369c-0.027,0.002-0.242-0.01-0.646-0.035c-0.295-0.006-0.548,0.012-0.759,0.053
	c-1.348,0.255-2.222,0.397-2.621,0.425c0.053-0.004-1.169,0.047-3.664,0.155c-2.497,0.108-4.331,0.203-5.503,0.285
	c0.005-0.697-0.102-1.654-0.321-2.869c-0.031-0.052-0.084-0.142-0.159-0.27c-0.077-0.129-0.117-0.233-0.123-0.313
	c-0.005-0.08,0.182-0.274,0.562-0.582c0.38-0.307,0.567-0.501,0.562-0.581c-0.013-0.187-0.187-0.376-0.522-0.566
	c-0.416-0.212-0.712-0.419-0.887-0.621c-0.066-0.558-0.055-0.986,0.031-1.287c-0.348-1.528-0.642-2.672-0.883-3.433
	c-0.109-0.42-0.189-0.79-0.238-1.107c-0.114-1.251-0.185-2.263-0.212-3.038c-0.087-0.476-0.187-0.75-0.299-0.822
	c-0.472-0.235-2.053-0.259-4.744-0.07c-0.426,0.029-0.974,0.242-1.642,0.637c-0.257,0.152-0.374,0.401-0.349,0.747
	c0.003,0.054-0.11,0.162-0.339,0.325c-0.23,0.163-0.355,0.286-0.376,0.368c-0.021,0.081-0.103,0.255-0.245,0.519
	c-0.142,0.264-0.21,0.436-0.205,0.516c0.011,0.16,0.174,0.389,0.49,0.689c0.46,0.449,0.706,0.901,0.738,1.354
	c0.011,0.16-0.001,0.375-0.036,0.645c-0.035,0.27-0.047,0.472-0.038,0.605c0.145,0.927,0.249,1.455,0.312,1.585
	c0.256,0.598,0.426,1.496,0.51,2.695c0.009,0.133,0.045,0.358,0.107,0.675s0.098,0.542,0.108,0.676
	c0.059,0.852,0.169,1.661,0.33,2.426c0.004,0.053,0.094,0.195,0.27,0.423c0.177,0.229,0.268,0.383,0.274,0.463l0.039,0.56
	c-0.47,0.166-0.945,0.266-1.425,0.3c-0.16,0.011-0.522,0.003-1.086-0.024c-0.564-0.028-0.913-0.037-1.046-0.028
	c-0.16,0.011-0.393,0.041-0.697,0.089c-0.305,0.048-0.523,0.077-0.656,0.086c-0.16,0.011-0.547,0.038-1.159,0.081
	c-0.989-0.734-1.511-1.113-1.566-1.135c-0.39-0.214-0.931-0.297-1.624-0.248c-0.399,0.028-1.142,0.521-2.226,1.481
	c-1.382,0.15-2.336,0.284-2.863,0.401c-0.184-0.71-0.292-1.305-0.326-1.785c-0.125-1.785-0.195-3.173-0.21-4.162
	c-0.01-0.133-0.107-0.374-0.292-0.722c-0.185-0.349-0.267-0.577-0.249-0.686l0.997-9.869c0.022-0.055,0.124-0.323,0.305-0.805
	c0.181-0.48,0.268-0.761,0.263-0.841c-0.025-0.346-0.182-0.67-0.47-0.972c-0.029-0.024-0.313-0.259-0.852-0.703
	c-0.369-0.296-0.589-0.561-0.659-0.797c-0.2-0.575-0.341-1.436-0.421-2.582l-0.087-1.238c0.632-2.454,0.955-3.575,0.97-3.362
	c-0.005-0.08-0.161-0.664-0.464-1.754c-0.304-1.09-0.457-1.662-0.461-1.715c-0.004-0.053,0.06-0.573,0.192-1.56
	c0.132-0.986,0.223-1.695,0.273-2.128l2.278-0.159c0.082,0.021,0.474,0.275,1.178,0.761c0.534,0.365,1.107,0.525,1.72,0.482
	l0.64-0.044c0.346-0.025,0.603-0.182,0.77-0.473c0.231-0.52,0.417-0.924,0.558-1.214c0.953-0.151,2.305-0.343,4.056-0.577
	c0.433,0.077,0.673,0.249,0.719,0.515c0.535,2.304,0.923,5.157,1.16,8.558c0.034,0.483,0.04,0.758,0.018,0.827
	c-0.022,0.069-0.179,0.228-0.469,0.477c-0.29,0.249-0.432,0.427-0.424,0.534c0.005,0.081,0.396,0.309,1.172,0.685
	c-0.072,1.27-0.086,2.214-0.043,2.83c0.386,0.161,0.754,0.256,1.105,0.286c0.941,0.069,1.878,0.07,2.811,0.005
	c0.106-0.007,0.415-0.002,0.925,0.016c0.51,0.019,0.818,0.023,0.925,0.016c0.985-0.069,1.521-0.267,1.605-0.594
	c0.473-2.041,0.69-3.716,0.653-5.026c0.004-0.321-0.044-1.001-0.143-2.038c-0.119-0.929-0.156-1.649-0.113-2.161
	c0.91-0.411,1.36-0.684,1.351-0.817c-0.013-0.187-0.107-0.381-0.282-0.583c-0.369-0.296-0.679-0.528-0.932-0.698
	c-0.405-0.427-0.634-1.026-0.688-1.799c0.001,0.026,0.068-0.166,0.2-0.577c0.058-0.325,0.04-0.578-0.053-0.759
	c0.106-0.008,0.276-0.039,0.512-0.096c0.235-0.057,0.419-0.09,0.551-0.099c-0.212,0.015,0.532,0.003,2.231-0.035
	c0.314,0.299,0.529,0.539,0.649,0.717c0.578,0.281,1.144,0.402,1.7,0.363c0.529-0.037,0.95-0.28,1.265-0.731
	c0.193-0.281,0.372-0.574,0.537-0.881c0.629-0.124,1.764-0.244,3.404-0.358c0.539,0.846,0.752,1.608,0.639,2.285
	c-0.114,0.677-0.169,1.029-0.167,1.055c0.088,0.503,0.264,1.301,0.528,2.393c0.264,1.093,0.397,1.653,0.399,1.679l0.316,4.517
	c0.002,0.026-0.157,0.158-0.475,0.394c-0.318,0.237-0.47,0.449-0.457,0.635c0.005,0.08,0.273,0.282,0.805,0.606
	c0.531,0.324,0.8,0.526,0.806,0.606l0.338,4.836c0.005,0.08-0.085,0.428-0.269,1.043c-0.184,0.616-0.275,0.95-0.271,1.003
	c0.006,0.08,0.136,0.419,0.392,1.017c0.317,0.701,0.51,1.169,0.581,1.405c0.071,0.263,0.066,0.572-0.016,0.925
	c0.084,0.048,0.167,0.096,0.251,0.143c0.558,0.711,0.855,1.32,0.891,1.826c0.003,0.053-0.041,0.19-0.132,0.41
	c-0.092,0.221-0.135,0.371-0.129,0.451c0.046,0.667,0.09,0.918,0.133,0.754c-0.206,1.273-0.354,2.22-0.444,2.842l1.661,4.222
	C91.566,75.406,91.494,75.632,91.417,75.865 M54.839,71.696c-0.239,0.418-0.38,0.696-0.424,0.833
	c-0.292,0.797-0.642,1.356-1.047,1.68c-0.279,0.233-0.759,0.729-1.442,1.486c-0.684,0.757-1.332,1.345-1.945,1.763
	c-0.766,0.535-1.888,0.961-3.365,1.279c-2.928,0.633-6.297,1.083-10.107,1.349c-2.691,0.189-5.53,0.173-8.517-0.046
	c-1.399-0.09-2.729-0.346-3.99-0.766c-1.527-0.777-2.616-1.423-3.268-1.94c0.18-0.093,0.437-0.258,0.768-0.496
	c0.12-0.196,0.178-0.333,0.172-0.413c-0.005-0.08-0.127-0.186-0.363-0.316c-0.237-0.131-0.435-0.191-0.595-0.179
	c-0.16,0.011-0.286,0.033-0.377,0.066c-0.092,0.033-0.151,0.051-0.177,0.053c-0.137-0.045-0.235-0.199-0.293-0.462
	c-0.059-0.264-0.172-0.443-0.339-0.538l-0.179-2.558c-0.026-0.373,0.223-0.725,0.749-1.057c0.526-0.331,1.122-0.52,1.788-0.567
	c0.133-0.009,0.541,0.077,1.223,0.256c0.681,0.181,1.089,0.266,1.223,0.256c0.452-0.031,1.003-0.197,1.652-0.497
	c0.648-0.299,1.332-0.475,2.051-0.525c0.08-0.005,0.554-0.018,1.423-0.039c0.869-0.021,1.503-0.045,1.903-0.073
	c-0.003,0.349-0.024,0.618-0.064,0.808c0.093,0.957,0.174,1.915,0.241,2.875c0.286,1.024,0.972,1.646,2.058,1.864
	c0.328,0.084,0.613,0.144,0.856,0.181c0.702,0.085,1.333,0.108,1.893,0.068c0.559-0.039,1.259-0.175,2.1-0.407
	c0.84-0.234,1.62-0.663,2.34-1.289c0.719-0.626,1.102-1.181,1.148-1.666c-0.022-0.32-0.054-0.572-0.093-0.757
	c1.301-0.546,1.942-0.952,1.923-1.219c-0.017-0.24-0.279-0.342-0.784-0.306c-0.54-0.445-1.035-0.812-1.483-1.102
	c-0.104-0.34-0.164-0.617-0.179-0.83c-0.465-0.905-0.857-1.641-1.178-2.207c-0.321-0.567-1.217-1.227-2.689-1.981
	c-1.223-0.637-2.38-1.105-3.472-1.404c-1.35-0.548-2.414-1.022-3.192-1.423c-1.442-0.328-2.596-0.555-3.461-0.682
	c-0.071-0.236-0.14-0.459-0.208-0.668c-0.129-0.313-0.37-0.51-0.724-0.592c-0.917-0.097-1.616-0.141-2.098-0.135
	c-0.834-0.45-1.464-0.834-1.888-1.153c-0.612-0.332-1.112-0.591-1.5-0.779c-0.384-0.508-0.794-1.202-1.23-2.082
	c-0.376-0.777-0.569-1.246-0.58-1.406c-0.032-0.452-0.013-1.136,0.057-2.052c0.008-0.268,0.284-0.542,0.826-0.821
	c0.025-0.028,0.57-0.267,1.637-0.717c0.649-0.286,0.968-0.509,0.957-0.669c-0.022-0.32-0.444-0.612-1.266-0.875
	c0.313-0.504,0.526-0.894,0.641-1.17c0.456-0.379,0.836-0.687,1.141-0.923c0.438-0.245,0.799-0.43,1.085-0.558
	c0.61-0.47,1.012-0.847,1.206-1.128c0.54-0.332,1.315-0.628,2.328-0.886c1.013-0.258,2.551-0.566,4.614-0.925
	c1.826-0.315,2.898-0.484,3.218-0.506c0.133-0.01,0.563,0.014,1.29,0.07c0.727,0.057,1.157,0.08,1.29,0.071
	c0.133-0.01,0.272-0.033,0.417-0.07c0.145-0.036,0.297-0.061,0.457-0.072c1.145-0.08,2.196,0.007,3.151,0.262
	c0.829,0.37,1.479,0.673,1.951,0.908c0.192,0.066,0.608,0.078,1.248,0.033c0.133-0.009,0.433-0.117,0.901-0.324
	c0.467-0.207,0.781-0.316,0.941-0.327c0.159-0.011,0.518,0.138,1.075,0.447c1.342,0.817,2.477,1.728,3.404,2.734
	c1.013,1.081,1.551,2.074,1.614,2.979c0.017,0.24-0.084,0.716-0.302,1.427c-1.089,0.13-2.903,0.404-5.444,0.823
	c-2.303,0.375-3.509,0.566-3.615,0.574c-0.639,0.045-1.175,0.042-1.607-0.008c0.771-0.456,1.147-0.83,1.126-1.123
	c-0.02-0.293-0.26-0.464-0.718-0.512c-0.617-0.011-1.067-0.127-1.35-0.348c-0.296-0.407-0.592-0.802-0.886-1.183
	c-0.5-0.634-1.182-1.015-2.048-1.142c-0.641,0.019-1.148,0.04-1.521,0.066c0.046-0.109-0.065-0.156-0.331-0.137
	c-0.746,0.052-1.629,0.248-2.65,0.587c-0.128,0.089-0.189,0.161-0.186,0.214c-0.699,0.343-1.282,1-1.75,1.969
	c-0.248,0.286-0.486,0.516-0.714,0.693c-0.121,0.196-0.166,0.507-0.136,0.933c0.062,0.88,0.408,1.618,1.039,2.217
	c0.95,0.576,1.743,1.003,2.378,1.279c0.03,0.052,0.001,0.201-0.089,0.448c-0.09,0.248-0.13,0.438-0.12,0.571
	c0.024,0.347,0.382,0.496,1.075,0.447c0.133-0.009,0.212-0.028,0.237-0.057c-0.002-0.026,0.063-0.044,0.197-0.054
	c0.133-0.009,0.39,0.033,0.772,0.127c0.381,0.094,0.638,0.136,0.772,0.127c0.197,0.147,0.387,0.361,0.567,0.643
	c0.18,0.282,0.354,0.471,0.522,0.566c1.019,0.411,1.911,0.723,2.676,0.937c2.778,1.065,4.849,1.777,6.214,2.136
	c0.714,0.272,1.434,0.61,2.159,1.014c0.485,0.046,0.742,0.082,0.77,0.107c0.221,0.092,0.415,0.185,0.582,0.28
	c0.646,0.812,1.293,1.637,1.941,2.475c1.262,1.599,1.903,2.532,1.922,2.798c0.004,0.053-0.21,0.255-0.64,0.607
	c-0.431,0.351-0.643,0.567-0.638,0.647c0.004,0.053,0.175,0.202,0.513,0.446c0.476,0.288,0.756,0.469,0.842,0.543
	c0.171,0.149,0.263,0.317,0.276,0.503C55.122,71.154,55.03,71.361,54.839,71.696"/>
</svg>
