<?xml version="1.0" encoding="UTF-8"?>
<svg id="Layer_2" data-name="Layer 2" xmlns="http://www.w3.org/2000/svg" viewBox="0 0 706.39 152.24">
  <defs>
    <style>
      .cls-1 {
        fill: #003944;
      }
    </style>
  </defs>
  <g id="Layer_1-2" data-name="Layer 1">
    <g>
      <g>
        <path class="cls-1" d="M14.05,95.21c.99,8.26,7.27,14.88,18.51,14.88,8.76,0,13.55-4.96,13.55-10.58,0-4.96-3.64-8.76-10.25-10.25l-13.55-2.98c-12.4-2.64-19.84-11.07-19.84-22.31,0-13.55,12.73-25.13,28.27-25.13,21.82,0,28.6,14.22,30.25,21.32l-13.72,5.12c-.66-4.13-3.97-13.22-16.53-13.22-7.93,0-13.22,5.12-13.22,10.58,0,4.79,2.98,8.27,9.09,9.59l12.89,2.81c14.38,3.14,21.98,11.9,21.98,23.64s-9.42,24.63-29.09,24.63c-21.82,0-31.08-14.05-32.4-23.14l14.05-4.96Z"/>
        <path class="cls-1" d="M82.48,0c6.28,0,11.24,4.96,11.24,11.24s-4.96,11.08-11.24,11.08-11.07-4.96-11.07-11.08S76.37,0,82.48,0Zm-7.6,120.83V41.32h15.37V120.83h-15.37Z"/>
        <path class="cls-1" d="M109.42,120.83V41.32h14.88v10.58c4.96-8.76,14.88-12.89,24.13-12.89,9.92,0,19.51,4.79,23.8,15.04,6.28-11.41,16.53-15.04,26.61-15.04,13.89,0,27.44,9.42,27.44,30.25v51.57h-15.37v-49.92c0-10.41-5.12-18.18-16.86-18.18-10.91,0-18.35,8.59-18.35,20v48.1h-15.54v-49.92c0-10.25-4.96-18.18-16.86-18.18-11.07,0-18.51,8.26-18.51,20.17v47.94h-15.37Z"/>
        <path class="cls-1" d="M243.81,152.24V41.32h15.04v12.4c4.3-7.93,13.72-14.22,26.61-14.22,23.8,0,36.53,18.35,36.53,41.49s-13.72,41.99-37.03,41.99c-12.23,0-21.49-5.79-25.79-12.89v42.15h-15.37Zm38.84-99.01c-14.22,0-23.64,11.9-23.64,27.77s9.42,28.1,23.64,28.1,23.47-11.74,23.47-28.1-8.93-27.77-23.47-27.77Z"/>
        <path class="cls-1" d="M334.55,120.83V1.16h15.54V120.83h-15.54Z"/>
        <path class="cls-1" d="M462.41,120.83V1.16h15.54V120.83h-15.54Z"/>
        <path class="cls-1" d="M504.73,0c6.28,0,11.24,4.96,11.24,11.24s-4.96,11.08-11.24,11.08-11.08-4.96-11.08-11.08,4.96-11.24,11.08-11.24Zm-7.6,120.83V41.32h15.37V120.83h-15.37Z"/>
        <path class="cls-1" d="M538.28,95.21c.99,8.26,7.27,14.88,18.51,14.88,8.76,0,13.55-4.96,13.55-10.58,0-4.96-3.64-8.76-10.25-10.25l-13.55-2.98c-12.4-2.64-19.84-11.07-19.84-22.31,0-13.55,12.73-25.13,28.27-25.13,21.82,0,28.6,14.22,30.25,21.32l-13.72,5.12c-.66-4.13-3.97-13.22-16.53-13.22-7.93,0-13.22,5.12-13.22,10.58,0,4.79,2.98,8.27,9.09,9.59l12.89,2.81c14.38,3.14,21.98,11.9,21.98,23.64s-9.42,24.63-29.09,24.63c-21.82,0-31.08-14.05-32.4-23.14l14.05-4.96Z"/>
        <path class="cls-1" d="M620.94,41.32h17.19v14.05h-17.19v41.32c0,7.27,2.98,10.91,11.07,10.91,1.98,0,4.79-.33,6.12-.66v13.22c-1.32,.5-5.29,1.49-10.58,1.49-13.55,0-22.15-8.26-22.15-22.65V55.38h-15.21v-14.05h4.3c8.6,0,12.23-5.29,12.23-12.23v-12.89h14.22v25.12Z"/>
        <path class="cls-1" d="M658.95,95.21c.99,8.26,7.27,14.88,18.51,14.88,8.76,0,13.55-4.96,13.55-10.58,0-4.96-3.64-8.76-10.25-10.25l-13.55-2.98c-12.4-2.64-19.84-11.07-19.84-22.31,0-13.55,12.73-25.13,28.27-25.13,21.82,0,28.6,14.22,30.25,21.32l-13.72,5.12c-.66-4.13-3.97-13.22-16.53-13.22-7.93,0-13.22,5.12-13.22,10.58,0,4.79,2.98,8.27,9.09,9.59l12.89,2.81c14.38,3.14,21.98,11.9,21.98,23.64s-9.42,24.63-29.09,24.63c-21.82,0-31.08-14.05-32.4-23.14l14.05-4.96Z"/>
      </g>
      <g>
        <rect class="cls-1" x="367.06" y="106.78" width="78.5" height="14.05"/>
        <rect class="cls-1" x="367.06" y="42.28" width="78.5" height="14.05"/>
        <rect class="cls-1" x="367.06" y="74.53" width="78.5" height="14.05"/>
      </g>
    </g>
  </g>
</svg>