<?xml version="1.0" encoding="utf-8"?>
<!-- Generator: Adobe Illustrator 13.0.0, SVG Export Plug-In . SVG Version: 6.00 Build 14948)  -->
<!DOCTYPE svg PUBLIC "-//W3C//DTD SVG 1.1//EN" "http://www.w3.org/Graphics/SVG/1.1/DTD/svg11.dtd">
<svg version="1.1" id="Layer_1" xmlns="http://www.w3.org/2000/svg" xmlns:xlink="http://www.w3.org/1999/xlink" x="0px" y="0px"
	 width="675.6px" height="106.3px" viewBox="0 0 675.6 106.3" enable-background="new 0 0 675.6 106.3" xml:space="preserve">
<path fill="#38457D" d="M106.282,53.15C106.287,23.801,82.499,0.005,53.15,0C23.801-0.004,0.005,23.784,0,53.133v0.017
	c-0.005,29.349,23.784,53.145,53.132,53.15c29.349,0.004,53.145-23.784,53.15-53.133V53.15z"/>
<path fill="#FFFFFF" d="M57.343,92.763c-1.246,0-1.121,2.438,0.212,4.133c1.233,1.568,3.629,2.263,3.629,1.055
	C61.185,96.943,58.088,92.763,57.343,92.763 M49.059,92.514c-0.495-0.01-0.902,0.555-1.308,1.72c-0.34,0.976-1.011,1.92-1.489,2.104
	c-1.288,0.493-1.056,2.195,0.301,2.195c0.644,0,1.604-0.435,2.131-0.962c1.764-1.763,2.314-3.289,1.526-4.239
	C49.775,92.798,49.397,92.521,49.059,92.514 M53.26,91.395c-0.83-0.026-1.188,1.393-1.188,4.479c0,3.754,0.072,3.947,1.369,3.764
	c1.205-0.171,1.386-0.6,1.544-3.592c0.129-2.449-0.073-3.606-0.731-4.152C53.868,91.573,53.538,91.404,53.26,91.395 M57.611,29.497
	c0.138-0.028,0.54,0.451,1.008,1.221c0.575,0.946,4.084,3.997,7.799,6.782c11.538,8.744,21.054,17.492,16.328,32.759
	c-1.616,4.581-3.954,8.272-7.84,12.38c-2.176,2.299-5.06,4.354-6.112,4.354c-0.189,0,1.003-1.715,2.649-3.809
	c5.341-6.797,7.882-14.855,7.152-22.672c-0.67-7.175-6.219-15.884-14.993-23.536c-3.645-3.179-6.067-6.135-6.042-7.374
	C57.562,29.541,57.58,29.503,57.611,29.497 M54.758,11.171c-0.411,0.068-0.561,3.616-0.568,11.6l-0.014,11.691l-2.973,11.234
	c-3.313,10.153-3.811,20.513-1.377,30.868c2.228,8.798,3.179,10.539,6.259,11.414c1.372,0.391,3.559,1.417,4.859,2.284
	c2.941,1.962,5.573,1.74,10.846-0.924c7.676-3.878,12.821-8.88,16.25-15.798c2.977-6.585,3.42-14.819,0.272-21.373
	c-2.793-5.652-7.519-10.207-17.41-16.772c-8.641-5.735-10.46-7.267-12.589-10.596c-1.284-2.008-1.471-2.89-1.229-5.769
	c0.157-1.87,0.503-3.908,0.767-4.531c0.404-0.954,0.274-1.07-0.809-0.726c-1.034,0.328-1.36,0.106-1.673-1.142
	C55.123,11.65,54.919,11.145,54.758,11.171 M48.735,8.647c-0.745,0-0.911,1.039-0.911,5.682c0,3.123-0.32,6.608-0.708,7.744
	c-1.246,3.652-4.61,6.941-13.915,13.601c-6.728,4.815-12.367,10.596-14.544,14.909c-6.653,13.18-0.776,29.213,13.666,37.289
	c6.445,3.605,11.853,5.008,11.853,3.07c0-0.501-0.216-0.911-0.485-0.911s-2.525-1.328-5.012-2.949
	C27.93,80.071,22.913,71.394,23.71,61.183c0.597-7.63,3.49-12.303,15.168-24.511c10.074-10.531,10.75-11.87,10.758-21.192
	C49.642,9.809,49.491,8.647,48.735,8.647 M51.758,3.793c-0.591,0-0.827,2.752-1.008,11.687c-0.23,11.425-0.276,11.782-2.034,15.64
	c-1.442,3.165-6.486,10.688-8.141,12.145c-1.491,1.311-4.728,6.229-6.315,9.592c-2.833,6.01-2.631,14.062-0.157,20.166
	c2.069,4.771,5.04,8.615,9.828,12.713c3.758,3.216,4.917,3.672,5.492,2.173c0.196-0.509-0.647-2.285-1.927-4.067
	c-1.251-1.741-3.371-5.441-4.707-8.226c-5.524-11.691-2.794-21.402,3.602-32.143c3.56-5.566,5.607-10.559,6.31-15.391
	C53.583,22.027,52.875,3.793,51.758,3.793"/>
<polygon points="130.529,40.84 120.455,40.84 120.455,37.204 144.978,37.204 144.978,40.84 134.853,40.84 134.853,70.326 
	130.529,70.326 "/>
<path d="M147.589,35.433h4.324v14.843h0.098c0.69-1.23,1.771-2.311,3.096-3.048c1.279-0.736,2.803-1.227,4.424-1.227
	c3.194,0,8.304,1.964,8.304,10.171v14.153h-4.324V56.665c0-3.833-1.426-7.078-5.504-7.078c-2.802,0-5.013,1.966-5.798,4.326
	c-0.247,0.59-0.296,1.228-0.296,2.065v14.349h-4.324V35.433z"/>
<path d="M188.977,56.124c0.049-2.751-1.133-7.026-5.997-7.026c-4.373,0-6.291,4.028-6.633,7.026H188.977z M176.296,59.217
	c0.1,5.848,3.835,8.257,8.159,8.257c3.096,0,4.962-0.541,6.586-1.226l0.736,3.094c-1.523,0.69-4.128,1.524-7.912,1.524
	c-7.322,0-11.695-4.865-11.695-12.04c0-7.176,4.226-12.826,11.155-12.826c7.765,0,9.829,6.831,9.829,11.204
	c0,0.885-0.1,1.571-0.149,2.013H176.296z"/>
<path d="M212.427,53.567c0.934,0.245,2.113,0.345,3.539,0.345c5.16,0,8.305-2.507,8.305-7.078c0-4.373-3.096-6.486-7.814-6.486
	c-1.868,0-3.291,0.147-4.03,0.343V53.567z M208.152,37.598c2.064-0.345,4.766-0.641,8.208-0.641c4.226,0,7.322,0.983,9.288,2.754
	c1.817,1.572,2.899,3.979,2.899,6.929c0,2.998-0.886,5.356-2.556,7.075c-2.26,2.409-5.946,3.639-10.123,3.639
	c-1.279,0-2.458-0.051-3.441-0.296v13.269h-4.275V37.598z"/>
<path d="M247.575,56.124c0.048-2.751-1.133-7.026-5.997-7.026c-4.373,0-6.291,4.028-6.633,7.026H247.575z M234.894,59.217
	c0.1,5.848,3.835,8.257,8.159,8.257c3.096,0,4.962-0.541,6.586-1.226l0.736,3.094c-1.523,0.69-4.128,1.524-7.912,1.524
	c-7.322,0-11.695-4.865-11.695-12.04c0-7.176,4.226-12.826,11.155-12.826c7.764,0,9.829,6.831,9.829,11.204
	c0,0.885-0.1,1.571-0.149,2.013H234.894z"/>
<path d="M256.182,53.962c0-2.803-0.049-5.209-0.198-7.421h3.785l0.147,4.669h0.196c1.081-3.196,3.686-5.209,6.586-5.209
	c0.492,0,0.837,0.049,1.228,0.147v4.079c-0.443-0.1-0.883-0.148-1.475-0.148c-3.045,0-5.207,2.31-5.798,5.553
	c-0.098,0.591-0.196,1.277-0.196,2.017v12.678h-4.275V53.962z"/>
<rect x="271.273" y="35.434" width="4.324" height="34.892"/>
<path d="M302.042,39.61c-2.702,0-4.126,2.262-4.126,4.818c0,2.358,1.081,4.177,2.505,5.945c3.342-1.917,5.504-3.685,5.504-6.486
	c0-2.015-1.129-4.277-3.832-4.277H302.042z M301.208,67.624c2.8,0,5.209-1.277,6.782-2.996c-1.967-2.167-5.652-6.193-9.338-10.421
	c-1.768,1.13-4.275,3.245-4.275,6.734c0,3.784,2.8,6.683,6.782,6.683H301.208z M313.199,70.326
	c-0.934-0.933-1.819-1.868-3.096-3.243c-2.852,2.651-6.046,3.784-9.682,3.784c-6.438,0-10.172-4.324-10.172-9.287
	c0-4.522,2.702-7.618,6.486-9.682V51.75c-1.72-2.164-2.752-4.571-2.752-6.931c0-4.028,2.901-8.156,8.404-8.156
	c4.128,0,7.322,2.751,7.322,7.026c0,3.49-2.015,6.242-7.273,8.846v0.147c2.802,3.245,5.947,6.88,8.061,9.238
	c1.521-2.308,2.553-5.503,3.194-9.678h3.93c-0.885,5.209-2.309,9.337-4.767,12.236c1.768,1.868,3.49,3.732,5.454,5.848H313.199z"/>
<path d="M335.962,52.731h4.375c4.569,0,7.469-2.504,7.469-6.29c0-4.275-3.096-6.141-7.617-6.19c-2.064,0-3.537,0.195-4.227,0.391
	V52.731z M331.687,37.646c2.162-0.442,5.258-0.689,8.208-0.689c4.569,0,7.518,0.836,9.581,2.704
	c1.671,1.473,2.605,3.735,2.605,6.291c0,4.373-2.752,7.271-6.242,8.452v0.147c2.557,0.885,4.08,3.245,4.864,6.684
	c1.082,4.618,1.869,7.814,2.556,9.091h-4.422c-0.54-0.983-1.278-3.783-2.211-7.912c-0.982-4.57-2.753-6.29-6.635-6.437h-4.03v14.349
	h-4.275V37.646z"/>
<path d="M369.537,58.188c-4.718-0.099-10.074,0.735-10.074,5.357c0,2.802,1.866,4.124,4.077,4.124c3.097,0,5.063-1.962,5.75-3.979
	c0.149-0.443,0.247-0.932,0.247-1.375V58.188z M373.715,64.626c0,2.064,0.098,4.077,0.392,5.698h-3.931l-0.346-2.996h-0.146
	c-1.326,1.865-3.882,3.537-7.274,3.537c-4.814,0-7.272-3.391-7.272-6.831c0-5.749,5.11-8.894,14.302-8.846v-0.491
	c0-1.966-0.54-5.503-5.407-5.503c-2.211,0-4.52,0.687-6.191,1.768l-0.981-2.849c1.963-1.279,4.815-2.113,7.811-2.113
	c7.274,0,9.045,4.962,9.045,9.729V64.626z"/>
<path d="M384.039,57.451h0.099c0.589-0.836,1.426-1.867,2.113-2.703l6.979-8.207h5.205l-9.187,9.778l10.468,14.006h-5.256
	l-8.21-11.4l-2.212,2.456v8.944h-4.274V35.433h4.274V57.451z"/>
<path d="M421.792,63.839c0,2.455,0.047,4.617,0.196,6.486h-3.835l-0.247-3.882h-0.099c-1.132,1.916-3.634,4.422-7.864,4.422
	c-3.732,0-8.205-2.064-8.205-10.418V46.541h4.323v13.171c0,4.52,1.38,7.566,5.312,7.566c2.894,0,4.912-2.013,5.699-3.933
	c0.242-0.638,0.396-1.426,0.396-2.209V46.541h4.324V63.839z"/>
<polygon points="438.561,37.204 456.397,37.204 456.397,40.791 442.833,40.791 442.833,51.8 455.367,51.8 455.367,55.336 
	442.833,55.336 442.833,70.325 438.561,70.325 "/>
<path d="M464.02,58.481c0,5.209,3.001,9.143,7.227,9.143c4.128,0,7.223-3.882,7.223-9.24c0-4.028-2.014-9.14-7.125-9.14
	S464.02,53.961,464.02,58.481 M482.891,58.235c0,8.797-6.091,12.632-11.841,12.632c-6.438,0-11.401-4.717-11.401-12.236
	c0-7.963,5.21-12.63,11.793-12.63C478.272,46,482.891,50.963,482.891,58.235"/>
<path d="M507.323,63.839c0,2.455,0.052,4.617,0.2,6.486h-3.834l-0.247-3.882h-0.098c-1.128,1.916-3.635,4.422-7.861,4.422
	c-3.736,0-8.21-2.064-8.21-10.418V46.541h4.324v13.171c0,4.52,1.38,7.566,5.307,7.566c2.903,0,4.916-2.013,5.704-3.933
	c0.246-0.638,0.392-1.426,0.392-2.209V46.541h4.323V63.839z"/>
<path d="M513.524,52.979c0-2.458-0.051-4.473-0.195-6.437h3.831l0.245,3.93h0.099c1.179-2.26,3.933-4.471,7.865-4.471
	c3.289,0,8.401,1.964,8.401,10.123v14.202h-4.325v-13.71c0-3.833-1.425-7.029-5.503-7.029c-2.851,0-5.06,2.015-5.8,4.424
	c-0.196,0.54-0.294,1.277-0.294,2.016v14.3h-4.324V52.979z"/>
<path d="M556.042,56.221c0-0.54-0.047-1.276-0.196-1.817c-0.638-2.754-2.996-5.014-6.239-5.014c-4.473,0-7.129,3.933-7.129,9.189
	c0,4.817,2.362,8.797,7.031,8.797c2.897,0,5.55-1.915,6.337-5.158c0.149-0.592,0.196-1.179,0.196-1.868V56.221z M560.37,35.433
	v28.751c0,2.111,0.047,4.521,0.195,6.142h-3.886l-0.196-4.129h-0.097c-1.328,2.656-4.227,4.67-8.108,4.67
	c-5.75,0-10.172-4.865-10.172-12.092c-0.051-7.91,4.865-12.774,10.661-12.774c3.639,0,6.095,1.719,7.176,3.636h0.099V35.433H560.37z
	"/>
<path d="M579.096,58.188c-4.715-0.099-10.073,0.735-10.073,5.357c0,2.802,1.868,4.124,4.081,4.124c3.094,0,5.061-1.962,5.75-3.979
	c0.145-0.443,0.242-0.932,0.242-1.375V58.188z M583.275,64.626c0,2.064,0.099,4.077,0.392,5.698h-3.933l-0.34-2.996h-0.148
	c-1.328,1.865-3.883,3.537-7.274,3.537c-4.818,0-7.273-3.391-7.273-6.831c0-5.749,5.111-8.894,14.3-8.846v-0.491
	c0-1.966-0.54-5.503-5.404-5.503c-2.209,0-4.521,0.687-6.193,1.768l-0.982-2.849c1.966-1.279,4.817-2.113,7.813-2.113
	c7.273,0,9.044,4.962,9.044,9.729V64.626z"/>
<path d="M594.537,40.84v5.701h6.191v3.292h-6.191v12.829c0,2.948,0.834,4.616,3.243,4.616c1.179,0,1.867-0.098,2.507-0.294
	l0.194,3.244c-0.834,0.344-2.161,0.639-3.834,0.639c-2.013,0-3.635-0.689-4.669-1.868c-1.226-1.277-1.668-3.389-1.668-6.193V49.833
	h-3.686v-3.292h3.686v-4.375L594.537,40.84z"/>
<path d="M604.717,46.541h4.324v23.785h-4.324V46.541z M609.535,39.857c0.047,1.475-1.034,2.654-2.755,2.654
	c-1.522,0-2.604-1.179-2.604-2.654c0-1.524,1.128-2.703,2.702-2.703C608.501,37.154,609.535,38.333,609.535,39.857"/>
<path d="M617.937,58.481c0,5.209,3.001,9.143,7.226,9.143c4.129,0,7.223-3.882,7.223-9.24c0-4.028-2.013-9.14-7.124-9.14
	S617.937,53.961,617.937,58.481 M636.807,58.235c0,8.797-6.091,12.632-11.84,12.632c-6.439,0-11.401-4.717-11.401-12.236
	c0-7.963,5.209-12.63,11.793-12.63C632.189,46,636.807,50.963,636.807,58.235"/>
<path d="M641.339,52.979c0-2.458-0.051-4.473-0.195-6.437h3.831l0.246,3.93h0.098c1.179-2.26,3.933-4.471,7.865-4.471
	c3.291,0,8.401,1.964,8.401,10.123v14.202h-4.323v-13.71c0-3.833-1.427-7.029-5.505-7.029c-2.85,0-5.06,2.015-5.8,4.424
	c-0.195,0.54-0.294,1.277-0.294,2.016v14.3h-4.324V52.979z"/>
<path fill="#808080" d="M675.6,31.89h-1.002l-2.646,3.32l-2.607-3.32h-1.03v7.087h1.03v-5.466l2.614,3.185l2.609-3.274v5.555h1.031
	V31.89z M667.065,31.89h-5.48v0.961h2.26v6.126h1.031v-6.126h2.189V31.89z"/>
</svg>
